<svg width="320" height="82" viewBox="0 0 320 82" fill="none" xmlns="http://www.w3.org/2000/svg">
<path d="M70.432 39H46.0977C35.8804 39 26.1731 43.4647 19.5238 51.2223L12.7347 59.1429C7.73062 64.9809 11.8788 74 19.568 74H43.9023C54.1196 74 63.8269 69.5353 70.4762 61.7777L77.2653 53.8571C82.2694 48.0191 78.1212 39 70.432 39Z" fill="#00FCA8" fill-opacity="0.8" stroke="black" stroke-opacity="0.8" stroke-width="4"/>
<path d="M70.432 23H46.0977C35.8804 23 26.1731 27.4647 19.5238 35.2223L12.7347 43.1429C7.73062 48.9809 11.8788 58 19.568 58H43.9023C54.1196 58 63.8269 53.5353 70.4762 45.7777L77.2653 37.8571C82.2694 32.0191 78.1212 23 70.432 23Z" fill="#00FCA8" fill-opacity="0.8" stroke="black" stroke-opacity="0.8" stroke-width="4"/>
<path d="M70.432 7H46.0977C35.8804 7 26.1731 11.4647 19.5238 19.2223L12.7347 27.1429C7.73062 32.9809 11.8788 42 19.568 42H43.9023C54.1196 42 63.8269 37.5353 70.4762 29.7777L77.2653 21.8571C82.2694 16.0191 78.1212 7 70.432 7Z" fill="#00FCA8" fill-opacity="0.8" stroke="black" stroke-opacity="0.8" stroke-width="4"/>
<path d="M100.997 67C100.465 67 100.053 66.8543 99.762 66.563C99.4833 66.2717 99.344 65.8727 99.344 65.366V59.02H96.551V57.709H99.344V54.403H100.845V57.709H103.885V59.02H100.845V65.138C100.845 65.518 101.029 65.708 101.396 65.708H103.467V67H100.997ZM109.858 67.266C108.921 67.266 108.098 67.0697 107.388 66.677C106.679 66.2717 106.128 65.708 105.735 64.986C105.343 64.264 105.146 63.428 105.146 62.478V62.25C105.146 61.2873 105.343 60.445 105.735 59.723C106.128 59.001 106.673 58.4437 107.369 58.051C108.066 57.6457 108.864 57.443 109.763 57.443C110.637 57.443 111.41 57.633 112.081 58.013C112.753 58.3803 113.278 58.9123 113.658 59.609C114.038 60.3057 114.228 61.1227 114.228 62.06V62.744H106.647C106.685 63.7447 107.008 64.53 107.616 65.1C108.224 65.6573 108.984 65.936 109.896 65.936C110.694 65.936 111.309 65.7523 111.739 65.385C112.17 65.0177 112.499 64.5807 112.727 64.074L114.019 64.701C113.829 65.0937 113.563 65.4863 113.221 65.879C112.892 66.2717 112.455 66.601 111.91 66.867C111.378 67.133 110.694 67.266 109.858 67.266ZM106.666 61.509H112.708C112.658 60.6477 112.36 59.9763 111.815 59.495C111.283 59.0137 110.599 58.773 109.763 58.773C108.915 58.773 108.218 59.0137 107.673 59.495C107.129 59.9763 106.793 60.6477 106.666 61.509ZM120.741 67.266C119.842 67.266 119.031 67.076 118.309 66.696C117.6 66.3033 117.036 65.746 116.618 65.024C116.213 64.302 116.01 63.447 116.01 62.459V62.25C116.01 61.2493 116.213 60.3943 116.618 59.685C117.036 58.963 117.6 58.412 118.309 58.032C119.031 57.6393 119.842 57.443 120.741 57.443C121.628 57.443 122.382 57.6077 123.002 57.937C123.636 58.2663 124.13 58.7033 124.484 59.248C124.852 59.7927 125.086 60.3753 125.187 60.996L123.724 61.3C123.661 60.844 123.509 60.426 123.268 60.046C123.04 59.666 122.717 59.362 122.299 59.134C121.881 58.906 121.368 58.792 120.76 58.792C120.14 58.792 119.582 58.9313 119.088 59.21C118.607 59.4887 118.221 59.8877 117.929 60.407C117.651 60.9263 117.511 61.547 117.511 62.269V62.44C117.511 63.162 117.651 63.7827 117.929 64.302C118.221 64.8213 118.607 65.2203 119.088 65.499C119.582 65.7777 120.14 65.917 120.76 65.917C121.685 65.917 122.388 65.6763 122.869 65.195C123.363 64.7137 123.667 64.1183 123.781 63.409L125.263 63.732C125.124 64.34 124.871 64.9163 124.503 65.461C124.136 66.0057 123.636 66.4427 123.002 66.772C122.382 67.1013 121.628 67.266 120.741 67.266ZM127.442 67V53.7H128.943V59.191H129.209C129.336 58.9123 129.526 58.6527 129.779 58.412C130.045 58.1587 130.381 57.9497 130.786 57.785C131.204 57.6203 131.73 57.538 132.363 57.538C133.06 57.538 133.68 57.69 134.225 57.994C134.782 58.2853 135.226 58.716 135.555 59.286C135.884 59.8433 136.049 60.54 136.049 61.376V67H134.548V61.49C134.548 60.5653 134.314 59.894 133.845 59.476C133.389 59.058 132.768 58.849 131.983 58.849C131.084 58.849 130.349 59.1403 129.779 59.723C129.222 60.3057 128.943 61.1733 128.943 62.326V67H127.442ZM138.714 67V57.709H140.177V59.286H140.443C140.646 58.8427 140.988 58.4437 141.469 58.089C141.963 57.7217 142.685 57.538 143.635 57.538C144.332 57.538 144.953 57.6837 145.497 57.975C146.055 58.2663 146.498 58.697 146.827 59.267C147.157 59.837 147.321 60.54 147.321 61.376V67H145.82V61.49C145.82 60.5653 145.586 59.894 145.117 59.476C144.661 59.058 144.041 58.849 143.255 58.849C142.356 58.849 141.621 59.1403 141.051 59.723C140.494 60.3057 140.215 61.1733 140.215 62.326V67H138.714ZM154.281 67.266C153.343 67.266 152.514 67.0697 151.792 66.677C151.082 66.2843 150.525 65.7333 150.12 65.024C149.727 64.302 149.531 63.4533 149.531 62.478V62.231C149.531 61.2683 149.727 60.426 150.12 59.704C150.525 58.982 151.082 58.4247 151.792 58.032C152.514 57.6393 153.343 57.443 154.281 57.443C155.218 57.443 156.041 57.6393 156.751 58.032C157.473 58.4247 158.03 58.982 158.423 59.704C158.828 60.426 159.031 61.2683 159.031 62.231V62.478C159.031 63.4533 158.828 64.302 158.423 65.024C158.03 65.7333 157.473 66.2843 156.751 66.677C156.041 67.0697 155.218 67.266 154.281 67.266ZM154.281 65.917C155.269 65.917 156.054 65.6067 156.637 64.986C157.232 64.3527 157.53 63.504 157.53 62.44V62.269C157.53 61.205 157.232 60.3627 156.637 59.742C156.054 59.1087 155.269 58.792 154.281 58.792C153.305 58.792 152.52 59.1087 151.925 59.742C151.329 60.3627 151.032 61.205 151.032 62.269V62.44C151.032 63.504 151.329 64.3527 151.925 64.986C152.52 65.6067 153.305 65.917 154.281 65.917ZM161.352 67V53.7H162.853V67H161.352ZM169.923 67.266C168.986 67.266 168.156 67.0697 167.434 66.677C166.725 66.2843 166.167 65.7333 165.762 65.024C165.369 64.302 165.173 63.4533 165.173 62.478V62.231C165.173 61.2683 165.369 60.426 165.762 59.704C166.167 58.982 166.725 58.4247 167.434 58.032C168.156 57.6393 168.986 57.443 169.923 57.443C170.86 57.443 171.684 57.6393 172.393 58.032C173.115 58.4247 173.672 58.982 174.065 59.704C174.47 60.426 174.673 61.2683 174.673 62.231V62.478C174.673 63.4533 174.47 64.302 174.065 65.024C173.672 65.7333 173.115 66.2843 172.393 66.677C171.684 67.0697 170.86 67.266 169.923 67.266ZM169.923 65.917C170.911 65.917 171.696 65.6067 172.279 64.986C172.874 64.3527 173.172 63.504 173.172 62.44V62.269C173.172 61.205 172.874 60.3627 172.279 59.742C171.696 59.1087 170.911 58.792 169.923 58.792C168.948 58.792 168.162 59.1087 167.567 59.742C166.972 60.3627 166.674 61.205 166.674 62.269V62.44C166.674 63.504 166.972 64.3527 167.567 64.986C168.162 65.6067 168.948 65.917 169.923 65.917ZM176.538 62.402V62.136C176.538 61.1607 176.734 60.3247 177.127 59.628C177.52 58.9313 178.052 58.393 178.723 58.013C179.394 57.633 180.129 57.443 180.927 57.443C181.902 57.443 182.65 57.633 183.169 58.013C183.701 58.3803 184.094 58.792 184.347 59.248H184.613V57.709H186.038V69.166C186.038 69.6727 185.899 70.0717 185.62 70.363C185.341 70.6543 184.936 70.8 184.404 70.8H178.096V69.47H184.005C184.385 69.47 184.575 69.28 184.575 68.9V65.366H184.309C184.157 65.6447 183.942 65.917 183.663 66.183C183.384 66.449 183.023 66.6707 182.58 66.848C182.137 67.0127 181.586 67.095 180.927 67.095C180.129 67.095 179.394 66.905 178.723 66.525C178.052 66.145 177.52 65.6067 177.127 64.91C176.734 64.2007 176.538 63.3647 176.538 62.402ZM181.326 65.765C182.289 65.765 183.068 65.461 183.663 64.853C184.271 64.245 184.575 63.409 184.575 62.345V62.193C184.575 61.1163 184.271 60.2803 183.663 59.685C183.068 59.077 182.289 58.773 181.326 58.773C180.376 58.773 179.591 59.077 178.97 59.685C178.362 60.2803 178.058 61.1163 178.058 62.193V62.345C178.058 63.409 178.362 64.245 178.97 64.853C179.591 65.461 180.376 65.765 181.326 65.765ZM188.804 67V57.709H190.305V67H188.804ZM189.564 56.265C189.235 56.265 188.956 56.1573 188.728 55.942C188.513 55.7267 188.405 55.4543 188.405 55.125C188.405 54.783 188.513 54.5043 188.728 54.289C188.956 54.0737 189.235 53.966 189.564 53.966C189.894 53.966 190.166 54.0737 190.381 54.289C190.597 54.5043 190.704 54.783 190.704 55.125C190.704 55.4543 190.597 55.7267 190.381 55.942C190.166 56.1573 189.894 56.265 189.564 56.265ZM197.338 67.266C196.4 67.266 195.577 67.0697 194.868 66.677C194.158 66.2717 193.607 65.708 193.215 64.986C192.822 64.264 192.626 63.428 192.626 62.478V62.25C192.626 61.2873 192.822 60.445 193.215 59.723C193.607 59.001 194.152 58.4437 194.849 58.051C195.545 57.6457 196.343 57.443 197.243 57.443C198.117 57.443 198.889 57.633 199.561 58.013C200.232 58.3803 200.758 58.9123 201.138 59.609C201.518 60.3057 201.708 61.1227 201.708 62.06V62.744H194.127C194.165 63.7447 194.488 64.53 195.096 65.1C195.704 65.6573 196.464 65.936 197.376 65.936C198.174 65.936 198.788 65.7523 199.219 65.385C199.649 65.0177 199.979 64.5807 200.207 64.074L201.499 64.701C201.309 65.0937 201.043 65.4863 200.701 65.879C200.371 66.2717 199.934 66.601 199.39 66.867C198.858 67.133 198.174 67.266 197.338 67.266ZM194.146 61.509H200.188C200.137 60.6477 199.839 59.9763 199.295 59.495C198.763 59.0137 198.079 58.773 197.243 58.773C196.394 58.773 195.697 59.0137 195.153 59.495C194.608 59.9763 194.272 60.6477 194.146 61.509ZM207.689 67.266C206.536 67.266 205.561 67 204.763 66.468C203.977 65.936 203.502 65.0937 203.338 63.941L204.763 63.618C204.864 64.226 205.054 64.7073 205.333 65.062C205.611 65.404 205.953 65.651 206.359 65.803C206.777 65.9423 207.22 66.012 207.689 66.012C208.385 66.012 208.936 65.8727 209.342 65.594C209.747 65.3153 209.95 64.9417 209.95 64.473C209.95 63.9917 209.753 63.656 209.361 63.466C208.981 63.2633 208.455 63.0987 207.784 62.972L207.005 62.839C206.409 62.7377 205.865 62.5793 205.371 62.364C204.877 62.1487 204.484 61.8573 204.193 61.49C203.901 61.1227 203.756 60.6603 203.756 60.103C203.756 59.267 204.079 58.6147 204.725 58.146C205.371 57.6773 206.226 57.443 207.29 57.443C208.341 57.443 209.19 57.6837 209.836 58.165C210.494 58.6337 210.919 59.2987 211.109 60.16L209.703 60.521C209.589 59.8497 209.316 59.381 208.886 59.115C208.455 58.8363 207.923 58.697 207.29 58.697C206.656 58.697 206.156 58.8173 205.789 59.058C205.421 59.286 205.238 59.628 205.238 60.084C205.238 60.5273 205.409 60.8567 205.751 61.072C206.105 61.2747 206.574 61.4267 207.157 61.528L207.936 61.661C208.594 61.775 209.183 61.9333 209.703 62.136C210.235 62.326 210.653 62.6047 210.957 62.972C211.273 63.3393 211.432 63.8207 211.432 64.416C211.432 65.328 211.09 66.031 210.406 66.525C209.734 67.019 208.829 67.266 207.689 67.266Z" fill="white"/>
<path d="M117.638 37.39L123.404 43.156C120.552 45.574 116.894 47 112.864 47C104.06 46.938 96.93 39.746 96.992 30.942C97.054 22.138 104.246 15.008 113.05 15.07C117.018 15.132 120.676 16.62 123.466 19.038L117.7 24.742C116.336 23.75 114.724 23.192 112.988 23.192C110.88 23.192 108.896 23.998 107.408 25.424C105.92 26.912 105.114 28.896 105.114 31.004C105.052 33.112 105.858 35.096 107.346 36.584C108.834 38.072 110.818 38.878 112.926 38.94C114.662 38.94 116.274 38.382 117.638 37.39ZM141.314 15.07C150.118 15.008 157.31 22.138 157.31 30.942C157.372 39.746 150.304 46.938 141.5 47C132.634 47.062 125.442 39.932 125.442 31.128C125.38 22.324 132.448 15.132 141.314 15.07ZM146.956 36.584C148.444 35.096 149.25 33.112 149.25 31.004C149.25 28.896 148.382 26.912 146.894 25.424C145.406 23.998 143.422 23.192 141.314 23.192C139.206 23.192 137.284 23.998 135.796 25.486C134.308 27.036 133.502 28.958 133.502 31.066C133.502 33.174 134.37 35.158 135.858 36.646C137.346 38.134 139.33 38.94 141.438 38.94C143.546 38.878 145.53 38.072 146.956 36.584ZM198.92 15.008C207.166 14.946 213.738 20.154 213.738 30.322C213.738 35.344 213.738 47 213.738 47H205.678V31.066C205.678 31.004 205.678 30.942 205.678 30.88C205.616 28.834 204.252 23.068 198.362 23.068C192.038 23.068 191.17 28.896 191.17 31.004C191.17 31.004 191.17 31.004 191.17 31.066V47H191.108H183.048V31.066C183.048 31.004 183.048 30.942 183.048 30.88C183.048 28.834 181.622 23.068 175.794 23.068C169.408 23.068 168.54 28.896 168.54 31.004C168.54 31.004 168.54 31.004 168.54 31.066V47H159.86V14.946H168.54V18.294C170.958 15.69 173.5 15.008 176.352 15.008C180.94 14.946 185.032 17.054 187.698 20.402L190.302 17.984C193.216 15.628 196.13 15.008 198.92 15.008ZM234.056 15.07C242.86 15.008 250.052 22.138 250.114 30.942C250.176 39.746 243.046 46.938 234.242 47C231.266 47 228.166 46.132 226.12 43.59V58.904H217.44V15.132H226.12V18.48C227.794 16.31 231.142 15.132 234.056 15.07ZM239.76 36.584C241.248 35.096 242.054 33.112 241.992 31.004C241.992 28.896 241.186 26.912 239.698 25.424C238.21 23.998 236.226 23.192 234.118 23.192C232.01 23.192 230.026 23.998 228.538 25.486C227.05 27.036 226.244 28.958 226.244 31.066C226.306 33.174 227.112 35.158 228.6 36.646C230.088 38.134 232.072 38.94 234.18 38.94C236.288 38.878 238.272 38.072 239.76 36.584ZM267.675 15.07C276.479 15.008 283.671 22.138 283.671 30.942C283.733 39.746 276.665 46.938 267.861 47C258.995 47.062 251.803 39.932 251.803 31.128C251.741 22.324 258.809 15.132 267.675 15.07ZM273.317 36.584C274.805 35.096 275.611 33.112 275.611 31.004C275.611 28.896 274.743 26.912 273.255 25.424C271.767 23.998 269.783 23.192 267.675 23.192C265.567 23.192 263.645 23.998 262.157 25.486C260.669 27.036 259.863 28.958 259.863 31.066C259.863 33.174 260.731 35.158 262.219 36.646C263.707 38.134 265.691 38.94 267.799 38.94C269.907 38.878 271.891 38.072 273.317 36.584ZM298.497 38.32H313.191V47H286.221V38.32L300.791 23.75H286.221V15.07H313.067V23.75L298.497 38.32Z" fill="white"/>
</svg>
