<svg width="532" height="441" viewBox="0 0 532 441" fill="none" xmlns="http://www.w3.org/2000/svg">
<path d="M390.364 184.046L257.386 212.784C230.93 218.502 217.701 221.361 206.115 227.268C195.848 232.503 186.564 239.473 178.671 247.87C169.764 257.346 163.326 269.25 150.449 293.059L120.34 348.731C104.542 377.941 96.6429 392.546 98.6388 403.034C100.373 412.15 106.228 419.95 114.497 424.16C124.011 429.005 140.241 425.497 172.7 418.482L305.678 389.743C332.134 384.025 345.363 381.167 356.949 375.259C367.216 370.025 376.5 363.055 384.393 354.658C393.3 345.182 399.738 333.277 412.615 309.469L442.724 253.797C458.522 224.587 466.421 209.982 464.425 199.493C462.691 190.378 456.836 182.578 448.567 178.368C439.053 173.523 422.823 177.031 390.364 184.046Z" fill="#D3D3D3" fill-opacity="0.8" stroke="black" stroke-opacity="0.8" stroke-width="5" stroke-linecap="round" stroke-dasharray="12 12"/>
<path d="M387.638 130H251.59C224.522 130 210.988 130 198.416 133.326C187.275 136.274 176.728 141.125 167.239 147.666C156.532 155.047 147.724 165.322 130.109 185.873L88.9184 233.929C67.3066 259.142 56.5007 271.749 56.236 282.423C56.0059 291.699 60.0811 300.559 67.2738 306.421C75.55 313.167 92.1543 313.167 125.363 313.167H261.411C288.478 313.167 302.012 313.167 314.584 309.84C325.725 306.893 336.273 302.041 345.761 295.501C356.469 288.12 365.276 277.844 382.892 257.293L424.082 209.238C445.694 184.024 456.5 171.417 456.764 160.744C456.994 151.468 452.919 142.607 445.726 136.745C437.45 130 420.846 130 387.638 130Z" fill="#00FCA8" fill-opacity="0.8" stroke="black" stroke-opacity="0.8" stroke-width="5" stroke-linecap="round" stroke-dasharray="12 12"/>
<path d="M393.278 64.9237L259.38 40.8325C232.741 36.0394 219.421 33.6429 206.458 34.6904C194.971 35.6186 183.731 38.5254 173.235 43.2823C161.389 48.6505 150.901 57.2041 129.925 74.3112L80.8763 114.313C55.1413 135.301 42.2737 145.796 40.1231 156.253C38.2541 165.342 40.6959 174.784 46.7369 181.828C53.6878 189.932 70.0297 192.872 102.713 198.752L236.611 222.844C263.251 227.637 276.571 230.033 289.534 228.986C301.02 228.057 312.26 225.151 322.757 220.394C334.602 215.026 345.09 206.472 366.066 189.365L415.115 149.363C440.85 128.375 453.718 117.88 455.869 107.423C457.738 98.3338 455.296 88.8917 449.255 81.8486C442.304 73.7444 425.962 70.8042 393.278 64.9237Z" fill="white" fill-opacity="0.8" stroke="black" stroke-opacity="0.8" stroke-width="5" stroke-linecap="round" stroke-dasharray="12 12"/>
</svg>
