<svg width="490" height="846" viewBox="0 0 490 846" fill="none" xmlns="http://www.w3.org/2000/svg">
<rect x="4" y="4" width="482" height="838" rx="34" fill="white"/>
<rect x="4" y="4" width="482" height="838" rx="34" stroke="black" stroke-width="8"/>
<rect x="60.5" y="63.5" width="183" height="183" rx="28.5" fill="#00FFAE"/>
<rect x="60.5" y="63.5" width="183" height="183" rx="28.5" stroke="black" stroke-width="3"/>
<path d="M141.333 159.333L147.448 153.219C148.489 152.177 150.178 152.177 151.219 153.219L157.333 159.333M154.667 156.667L156.781 154.552C157.823 153.511 159.511 153.511 160.552 154.552L162.667 156.667M154.667 148.667H154.68M144 164.667H160C161.473 164.667 162.667 163.473 162.667 162V146C162.667 144.527 161.473 143.333 160 143.333H144C142.527 143.333 141.333 144.527 141.333 146V162C141.333 163.473 142.527 164.667 144 164.667Z" stroke="black" stroke-width="2" stroke-linecap="round" stroke-linejoin="round"/>
<rect x="264.5" y="80.5" width="147" height="147" rx="28.5" fill="#EEF1F4"/>
<rect x="264.5" y="80.5" width="147" height="147" rx="28.5" stroke="black" stroke-width="3"/>
<path d="M327.333 158.333L333.448 152.219C334.489 151.177 336.178 151.177 337.219 152.219L343.333 158.333M340.667 155.667L342.781 153.552C343.823 152.511 345.511 152.511 346.552 153.552L348.667 155.667M340.667 147.667H340.68M330 163.667H346C347.473 163.667 348.667 162.473 348.667 161V145C348.667 143.527 347.473 142.333 346 142.333H330C328.527 142.333 327.333 143.527 327.333 145V161C327.333 162.473 328.527 163.667 330 163.667Z" stroke="black" stroke-width="2" stroke-linecap="round" stroke-linejoin="round"/>
<rect x="78.5" y="268.5" width="147" height="147" rx="28.5" fill="#EEF1F4"/>
<rect x="78.5" y="268.5" width="147" height="147" rx="28.5" stroke="black" stroke-width="3"/>
<path d="M141.333 346.333L147.448 340.219C148.489 339.177 150.178 339.177 151.219 340.219L157.333 346.333M154.667 343.667L156.781 341.552C157.823 340.511 159.511 340.511 160.552 341.552L162.667 343.667M154.667 335.667H154.68M144 351.667H160C161.473 351.667 162.667 350.473 162.667 349V333C162.667 331.527 161.473 330.333 160 330.333H144C142.527 330.333 141.333 331.527 141.333 333V349C141.333 350.473 142.527 351.667 144 351.667Z" stroke="black" stroke-width="2" stroke-linecap="round" stroke-linejoin="round"/>
<rect x="264.5" y="267.5" width="147" height="147" rx="28.5" fill="#EEF1F4"/>
<rect x="264.5" y="267.5" width="147" height="147" rx="28.5" stroke="black" stroke-width="3"/>
<path d="M327.333 345.333L333.448 339.219C334.489 338.177 336.178 338.177 337.219 339.219L343.333 345.333M340.667 342.667L342.781 340.552C343.823 339.511 345.511 339.511 346.552 340.552L348.667 342.667M340.667 334.667H340.68M330 350.667H346C347.473 350.667 348.667 349.473 348.667 348V332C348.667 330.527 347.473 329.333 346 329.333H330C328.527 329.333 327.333 330.527 327.333 332V348C327.333 349.473 328.527 350.667 330 350.667Z" stroke="black" stroke-width="2" stroke-linecap="round" stroke-linejoin="round"/>
<path d="M136.227 493.727L141.852 511.409H142.068L147.705 493.727H153.159L145.136 517H138.795L130.761 493.727H136.227ZM161.147 517.341C159.382 517.341 157.855 516.966 156.567 516.216C155.287 515.458 154.298 514.405 153.601 513.057C152.905 511.701 152.556 510.129 152.556 508.341C152.556 506.538 152.905 504.962 153.601 503.614C154.298 502.258 155.287 501.205 156.567 500.455C157.855 499.697 159.382 499.318 161.147 499.318C162.912 499.318 164.435 499.697 165.715 500.455C167.003 501.205 167.995 502.258 168.692 503.614C169.389 504.962 169.738 506.538 169.738 508.341C169.738 510.129 169.389 511.701 168.692 513.057C167.995 514.405 167.003 515.458 165.715 516.216C164.435 516.966 162.912 517.341 161.147 517.341ZM161.17 513.591C161.973 513.591 162.643 513.364 163.181 512.909C163.719 512.447 164.124 511.818 164.397 511.023C164.677 510.227 164.817 509.322 164.817 508.307C164.817 507.292 164.677 506.386 164.397 505.591C164.124 504.795 163.719 504.167 163.181 503.705C162.643 503.242 161.973 503.011 161.17 503.011C160.359 503.011 159.677 503.242 159.124 503.705C158.579 504.167 158.166 504.795 157.886 505.591C157.613 506.386 157.476 507.292 157.476 508.307C157.476 509.322 157.613 510.227 157.886 511.023C158.166 511.818 158.579 512.447 159.124 512.909C159.677 513.364 160.359 513.591 161.17 513.591ZM181.53 499.545V503.182H171.018V499.545H181.53ZM173.405 495.364H178.246V511.636C178.246 512.083 178.314 512.432 178.45 512.682C178.586 512.924 178.776 513.095 179.018 513.193C179.268 513.292 179.556 513.341 179.882 513.341C180.109 513.341 180.336 513.322 180.564 513.284C180.791 513.239 180.965 513.205 181.086 513.182L181.848 516.784C181.605 516.86 181.265 516.947 180.825 517.045C180.386 517.152 179.852 517.216 179.223 517.239C178.056 517.284 177.033 517.129 176.155 516.773C175.283 516.417 174.605 515.864 174.121 515.114C173.636 514.364 173.397 513.417 173.405 512.273V495.364ZM184.043 517V499.545H188.736V502.591H188.918C189.236 501.508 189.77 500.689 190.52 500.136C191.27 499.576 192.134 499.295 193.111 499.295C193.354 499.295 193.615 499.311 193.895 499.341C194.176 499.371 194.422 499.413 194.634 499.466V503.761C194.407 503.693 194.092 503.633 193.691 503.58C193.289 503.527 192.922 503.5 192.589 503.5C191.876 503.5 191.24 503.655 190.679 503.966C190.126 504.269 189.687 504.693 189.361 505.239C189.043 505.784 188.884 506.413 188.884 507.125V517H184.043ZM203.639 517.341C201.843 517.341 200.298 516.977 199.002 516.25C197.715 515.515 196.722 514.477 196.025 513.136C195.328 511.788 194.98 510.193 194.98 508.352C194.98 506.557 195.328 504.981 196.025 503.625C196.722 502.269 197.703 501.212 198.968 500.455C200.241 499.697 201.734 499.318 203.446 499.318C204.597 499.318 205.669 499.504 206.662 499.875C207.662 500.239 208.533 500.788 209.275 501.523C210.025 502.258 210.609 503.182 211.025 504.295C211.442 505.402 211.65 506.697 211.65 508.182V509.511H196.912V506.511H207.093C207.093 505.814 206.942 505.197 206.639 504.659C206.336 504.121 205.915 503.701 205.377 503.398C204.847 503.087 204.23 502.932 203.525 502.932C202.79 502.932 202.139 503.102 201.571 503.443C201.01 503.777 200.571 504.227 200.252 504.795C199.934 505.356 199.771 505.981 199.764 506.67V509.523C199.764 510.386 199.923 511.133 200.241 511.761C200.567 512.39 201.025 512.875 201.616 513.216C202.207 513.557 202.908 513.727 203.718 513.727C204.256 513.727 204.749 513.652 205.196 513.5C205.643 513.348 206.025 513.121 206.343 512.818C206.662 512.515 206.904 512.144 207.071 511.705L211.548 512C211.321 513.076 210.855 514.015 210.15 514.818C209.453 515.614 208.552 516.235 207.446 516.682C206.347 517.121 205.078 517.341 203.639 517.341ZM235.458 504.523L231.026 504.795C230.951 504.417 230.788 504.076 230.538 503.773C230.288 503.462 229.958 503.216 229.549 503.034C229.148 502.845 228.667 502.75 228.106 502.75C227.356 502.75 226.723 502.909 226.208 503.227C225.693 503.538 225.436 503.955 225.436 504.477C225.436 504.894 225.602 505.246 225.936 505.534C226.269 505.822 226.841 506.053 227.651 506.227L230.811 506.864C232.508 507.212 233.773 507.773 234.606 508.545C235.439 509.318 235.856 510.333 235.856 511.591C235.856 512.735 235.519 513.739 234.845 514.602C234.178 515.466 233.261 516.14 232.095 516.625C230.936 517.102 229.598 517.341 228.083 517.341C225.773 517.341 223.932 516.86 222.561 515.898C221.197 514.928 220.398 513.61 220.163 511.943L224.924 511.693C225.068 512.398 225.417 512.936 225.97 513.307C226.523 513.67 227.231 513.852 228.095 513.852C228.943 513.852 229.625 513.689 230.14 513.364C230.663 513.03 230.928 512.602 230.936 512.08C230.928 511.64 230.742 511.28 230.379 511C230.015 510.712 229.455 510.492 228.697 510.341L225.674 509.739C223.97 509.398 222.701 508.807 221.867 507.966C221.042 507.125 220.629 506.053 220.629 504.75C220.629 503.629 220.932 502.663 221.538 501.852C222.151 501.042 223.011 500.417 224.117 499.977C225.231 499.538 226.534 499.318 228.026 499.318C230.231 499.318 231.966 499.784 233.231 500.716C234.504 501.648 235.246 502.917 235.458 504.523ZM246.219 517.341C244.423 517.341 242.878 516.977 241.582 516.25C240.295 515.515 239.302 514.477 238.605 513.136C237.908 511.788 237.56 510.193 237.56 508.352C237.56 506.557 237.908 504.981 238.605 503.625C239.302 502.269 240.283 501.212 241.548 500.455C242.821 499.697 244.314 499.318 246.026 499.318C247.177 499.318 248.249 499.504 249.242 499.875C250.242 500.239 251.113 500.788 251.855 501.523C252.605 502.258 253.189 503.182 253.605 504.295C254.022 505.402 254.23 506.697 254.23 508.182V509.511H239.492V506.511H249.673C249.673 505.814 249.522 505.197 249.219 504.659C248.916 504.121 248.495 503.701 247.957 503.398C247.427 503.087 246.81 502.932 246.105 502.932C245.37 502.932 244.719 503.102 244.151 503.443C243.59 503.777 243.151 504.227 242.832 504.795C242.514 505.356 242.351 505.981 242.344 506.67V509.523C242.344 510.386 242.503 511.133 242.821 511.761C243.147 512.39 243.605 512.875 244.196 513.216C244.787 513.557 245.488 513.727 246.298 513.727C246.836 513.727 247.329 513.652 247.776 513.5C248.223 513.348 248.605 513.121 248.923 512.818C249.242 512.515 249.484 512.144 249.651 511.705L254.128 512C253.901 513.076 253.435 514.015 252.73 514.818C252.033 515.614 251.132 516.235 250.026 516.682C248.927 517.121 247.658 517.341 246.219 517.341ZM244.173 497.295L246.582 492.125H251.06L247.594 497.295H244.173ZM261.59 493.727V517H256.749V493.727H261.59ZM272.783 517.341C270.987 517.341 269.442 516.977 268.146 516.25C266.858 515.515 265.866 514.477 265.169 513.136C264.472 511.788 264.124 510.193 264.124 508.352C264.124 506.557 264.472 504.981 265.169 503.625C265.866 502.269 266.847 501.212 268.112 500.455C269.385 499.697 270.877 499.318 272.589 499.318C273.741 499.318 274.813 499.504 275.805 499.875C276.805 500.239 277.677 500.788 278.419 501.523C279.169 502.258 279.752 503.182 280.169 504.295C280.586 505.402 280.794 506.697 280.794 508.182V509.511H266.055V506.511H276.237C276.237 505.814 276.086 505.197 275.783 504.659C275.48 504.121 275.059 503.701 274.521 503.398C273.991 503.087 273.374 502.932 272.669 502.932C271.934 502.932 271.283 503.102 270.714 503.443C270.154 503.777 269.714 504.227 269.396 504.795C269.078 505.356 268.915 505.981 268.908 506.67V509.523C268.908 510.386 269.067 511.133 269.385 511.761C269.711 512.39 270.169 512.875 270.76 513.216C271.351 513.557 272.052 513.727 272.862 513.727C273.4 513.727 273.892 513.652 274.339 513.5C274.786 513.348 275.169 513.121 275.487 512.818C275.805 512.515 276.048 512.144 276.214 511.705L280.692 512C280.464 513.076 279.999 514.015 279.294 514.818C278.597 515.614 277.695 516.235 276.589 516.682C275.491 517.121 274.222 517.341 272.783 517.341ZM291.199 517.341C289.412 517.341 287.874 516.962 286.586 516.205C285.305 515.439 284.321 514.379 283.631 513.023C282.949 511.667 282.609 510.106 282.609 508.341C282.609 506.553 282.953 504.985 283.643 503.636C284.34 502.28 285.328 501.223 286.609 500.466C287.889 499.701 289.412 499.318 291.177 499.318C292.699 499.318 294.033 499.595 295.177 500.148C296.321 500.701 297.226 501.477 297.893 502.477C298.559 503.477 298.927 504.652 298.995 506H294.427C294.298 505.129 293.957 504.428 293.404 503.898C292.859 503.36 292.143 503.091 291.256 503.091C290.506 503.091 289.851 503.295 289.29 503.705C288.737 504.106 288.305 504.693 287.995 505.466C287.684 506.239 287.529 507.174 287.529 508.273C287.529 509.386 287.68 510.333 287.984 511.114C288.294 511.894 288.73 512.489 289.29 512.898C289.851 513.307 290.506 513.511 291.256 513.511C291.809 513.511 292.305 513.398 292.745 513.17C293.192 512.943 293.559 512.614 293.847 512.182C294.143 511.742 294.336 511.216 294.427 510.602H298.995C298.919 511.936 298.555 513.11 297.904 514.125C297.26 515.133 296.37 515.92 295.234 516.489C294.097 517.057 292.752 517.341 291.199 517.341ZM310.738 499.545V503.182H300.227V499.545H310.738ZM302.613 495.364H307.454V511.636C307.454 512.083 307.523 512.432 307.659 512.682C307.795 512.924 307.985 513.095 308.227 513.193C308.477 513.292 308.765 513.341 309.091 513.341C309.318 513.341 309.545 513.322 309.773 513.284C310 513.239 310.174 513.205 310.295 513.182L311.057 516.784C310.814 516.86 310.473 516.947 310.034 517.045C309.594 517.152 309.06 517.216 308.432 517.239C307.265 517.284 306.242 517.129 305.363 516.773C304.492 516.417 303.814 515.864 303.329 515.114C302.844 514.364 302.606 513.417 302.613 512.273V495.364ZM313.252 517V499.545H318.093V517H313.252ZM315.684 497.295C314.964 497.295 314.347 497.057 313.831 496.58C313.324 496.095 313.07 495.515 313.07 494.841C313.07 494.174 313.324 493.602 313.831 493.125C314.347 492.64 314.964 492.398 315.684 492.398C316.403 492.398 317.017 492.64 317.525 493.125C318.04 493.602 318.297 494.174 318.297 494.841C318.297 495.515 318.04 496.095 317.525 496.58C317.017 497.057 316.403 497.295 315.684 497.295ZM329.217 517.341C327.452 517.341 325.925 516.966 324.637 516.216C323.357 515.458 322.368 514.405 321.671 513.057C320.975 511.701 320.626 510.129 320.626 508.341C320.626 506.538 320.975 504.962 321.671 503.614C322.368 502.258 323.357 501.205 324.637 500.455C325.925 499.697 327.452 499.318 329.217 499.318C330.982 499.318 332.505 499.697 333.785 500.455C335.073 501.205 336.065 502.258 336.762 503.614C337.459 504.962 337.808 506.538 337.808 508.341C337.808 510.129 337.459 511.701 336.762 513.057C336.065 514.405 335.073 515.458 333.785 516.216C332.505 516.966 330.982 517.341 329.217 517.341ZM329.24 513.591C330.043 513.591 330.713 513.364 331.251 512.909C331.789 512.447 332.194 511.818 332.467 511.023C332.747 510.227 332.887 509.322 332.887 508.307C332.887 507.292 332.747 506.386 332.467 505.591C332.194 504.795 331.789 504.167 331.251 503.705C330.713 503.242 330.043 503.011 329.24 503.011C328.429 503.011 327.747 503.242 327.194 503.705C326.649 504.167 326.236 504.795 325.956 505.591C325.683 506.386 325.546 507.292 325.546 508.307C325.546 509.322 325.683 510.227 325.956 511.023C326.236 511.818 326.649 512.447 327.194 512.909C327.747 513.364 328.429 513.591 329.24 513.591ZM345.156 506.909V517H340.316V499.545H344.929V502.625H345.134C345.52 501.61 346.168 500.807 347.077 500.216C347.986 499.617 349.088 499.318 350.384 499.318C351.596 499.318 352.653 499.583 353.554 500.114C354.456 500.644 355.156 501.402 355.656 502.386C356.156 503.364 356.406 504.53 356.406 505.886V517H351.566V506.75C351.573 505.682 351.3 504.848 350.747 504.25C350.194 503.644 349.433 503.341 348.463 503.341C347.812 503.341 347.236 503.481 346.736 503.761C346.244 504.042 345.857 504.451 345.577 504.989C345.304 505.519 345.164 506.159 345.156 506.909Z" fill="black"/>
<g clip-path="url(#clip0_1812_1533)">
<mask id="path-11-inside-1_1812_1533" fill="white">
<path d="M157.102 542H431V612H157.102V542Z"/>
</mask>
<path d="M157.102 542H431V612H157.102V542Z" fill="white"/>
<path d="M162.238 571H158.113V559.364H162.273C163.443 559.364 164.451 559.597 165.295 560.062C166.14 560.525 166.79 561.189 167.244 562.057C167.702 562.924 167.932 563.962 167.932 565.17C167.932 566.383 167.702 567.424 167.244 568.295C166.79 569.167 166.136 569.835 165.284 570.301C164.435 570.767 163.42 571 162.238 571ZM160.574 568.892H162.136C162.863 568.892 163.475 568.763 163.971 568.506C164.471 568.244 164.846 567.841 165.096 567.295C165.35 566.746 165.477 566.038 165.477 565.17C165.477 564.311 165.35 563.608 165.096 563.062C164.846 562.517 164.473 562.116 163.977 561.858C163.481 561.6 162.869 561.472 162.142 561.472H160.574V568.892ZM173.332 571.17C172.449 571.17 171.686 570.983 171.042 570.608C170.402 570.229 169.908 569.703 169.559 569.028C169.211 568.35 169.036 567.564 169.036 566.67C169.036 565.769 169.211 564.981 169.559 564.307C169.908 563.629 170.402 563.102 171.042 562.727C171.686 562.348 172.449 562.159 173.332 562.159C174.214 562.159 174.976 562.348 175.616 562.727C176.26 563.102 176.756 563.629 177.104 564.307C177.453 564.981 177.627 565.769 177.627 566.67C177.627 567.564 177.453 568.35 177.104 569.028C176.756 569.703 176.26 570.229 175.616 570.608C174.976 570.983 174.214 571.17 173.332 571.17ZM173.343 569.295C173.745 569.295 174.08 569.182 174.349 568.955C174.618 568.723 174.82 568.409 174.957 568.011C175.097 567.614 175.167 567.161 175.167 566.653C175.167 566.146 175.097 565.693 174.957 565.295C174.82 564.898 174.618 564.583 174.349 564.352C174.08 564.121 173.745 564.006 173.343 564.006C172.938 564.006 172.597 564.121 172.32 564.352C172.048 564.583 171.841 564.898 171.701 565.295C171.565 565.693 171.497 566.146 171.497 566.653C171.497 567.161 171.565 567.614 171.701 568.011C171.841 568.409 172.048 568.723 172.32 568.955C172.597 569.182 172.938 569.295 173.343 569.295ZM184.478 567.284V562.273H186.898V571H184.574V569.415H184.483C184.286 569.926 183.959 570.337 183.5 570.648C183.046 570.958 182.491 571.114 181.836 571.114C181.252 571.114 180.739 570.981 180.296 570.716C179.853 570.451 179.506 570.074 179.256 569.585C179.01 569.097 178.885 568.511 178.881 567.83V562.273H181.302V567.398C181.305 567.913 181.444 568.32 181.716 568.619C181.989 568.919 182.355 569.068 182.813 569.068C183.105 569.068 183.377 569.002 183.631 568.869C183.885 568.733 184.089 568.532 184.245 568.267C184.404 568.002 184.481 567.674 184.478 567.284ZM188.56 571V559.364H190.98V563.739H191.054C191.16 563.504 191.313 563.265 191.514 563.023C191.719 562.777 191.984 562.572 192.31 562.409C192.639 562.242 193.048 562.159 193.537 562.159C194.173 562.159 194.76 562.326 195.298 562.659C195.836 562.989 196.266 563.487 196.588 564.153C196.91 564.816 197.071 565.648 197.071 566.648C197.071 567.621 196.914 568.443 196.599 569.114C196.289 569.78 195.865 570.286 195.327 570.631C194.793 570.972 194.194 571.142 193.531 571.142C193.062 571.142 192.662 571.064 192.332 570.909C192.007 570.754 191.74 570.559 191.531 570.324C191.323 570.085 191.164 569.845 191.054 569.602H190.946V571H188.56ZM190.929 566.636C190.929 567.155 191.001 567.608 191.145 567.994C191.289 568.381 191.497 568.682 191.77 568.898C192.043 569.11 192.374 569.216 192.764 569.216C193.158 569.216 193.491 569.108 193.764 568.892C194.037 568.672 194.243 568.369 194.384 567.983C194.527 567.593 194.599 567.144 194.599 566.636C194.599 566.133 194.529 565.689 194.389 565.307C194.249 564.924 194.043 564.625 193.77 564.409C193.497 564.193 193.162 564.085 192.764 564.085C192.37 564.085 192.037 564.189 191.764 564.398C191.495 564.606 191.289 564.902 191.145 565.284C191.001 565.667 190.929 566.117 190.929 566.636ZM200.787 559.364V571H198.366V559.364H200.787ZM206.383 571.17C205.485 571.17 204.712 570.989 204.065 570.625C203.421 570.258 202.924 569.739 202.576 569.068C202.227 568.394 202.053 567.597 202.053 566.676C202.053 565.778 202.227 564.991 202.576 564.312C202.924 563.634 203.415 563.106 204.048 562.727C204.684 562.348 205.43 562.159 206.286 562.159C206.862 562.159 207.398 562.252 207.894 562.438C208.394 562.619 208.83 562.894 209.201 563.261C209.576 563.629 209.868 564.091 210.076 564.648C210.284 565.201 210.388 565.848 210.388 566.591V567.256H203.019V565.756H208.11C208.11 565.407 208.034 565.098 207.883 564.83C207.731 564.561 207.521 564.35 207.252 564.199C206.987 564.044 206.678 563.966 206.326 563.966C205.958 563.966 205.633 564.051 205.349 564.222C205.068 564.388 204.849 564.614 204.69 564.898C204.53 565.178 204.449 565.491 204.445 565.835V567.261C204.445 567.693 204.525 568.066 204.684 568.381C204.847 568.695 205.076 568.938 205.371 569.108C205.667 569.278 206.017 569.364 206.423 569.364C206.691 569.364 206.938 569.326 207.161 569.25C207.385 569.174 207.576 569.061 207.735 568.909C207.894 568.758 208.015 568.572 208.099 568.352L210.337 568.5C210.224 569.038 209.991 569.508 209.638 569.909C209.29 570.307 208.839 570.617 208.286 570.841C207.737 571.061 207.102 571.17 206.383 571.17ZM219.008 571.17C218.111 571.17 217.338 570.989 216.69 570.625C216.046 570.258 215.55 569.739 215.202 569.068C214.853 568.394 214.679 567.597 214.679 566.676C214.679 565.778 214.853 564.991 215.202 564.312C215.55 563.634 216.041 563.106 216.673 562.727C217.309 562.348 218.056 562.159 218.912 562.159C219.488 562.159 220.024 562.252 220.52 562.438C221.02 562.619 221.455 562.894 221.827 563.261C222.202 563.629 222.493 564.091 222.702 564.648C222.91 565.201 223.014 565.848 223.014 566.591V567.256H215.645V565.756H220.736C220.736 565.407 220.66 565.098 220.508 564.83C220.357 564.561 220.147 564.35 219.878 564.199C219.613 564.044 219.304 563.966 218.952 563.966C218.584 563.966 218.258 564.051 217.974 564.222C217.694 564.388 217.474 564.614 217.315 564.898C217.156 565.178 217.075 565.491 217.071 565.835V567.261C217.071 567.693 217.15 568.066 217.309 568.381C217.472 568.695 217.702 568.938 217.997 569.108C218.292 569.278 218.643 569.364 219.048 569.364C219.317 569.364 219.563 569.326 219.787 569.25C220.01 569.174 220.202 569.061 220.361 568.909C220.52 568.758 220.641 568.572 220.724 568.352L222.963 568.5C222.849 569.038 222.616 569.508 222.264 569.909C221.916 570.307 221.465 570.617 220.912 570.841C220.363 571.061 219.728 571.17 219.008 571.17ZM231.535 564.761L229.319 564.898C229.281 564.708 229.2 564.538 229.075 564.386C228.95 564.231 228.785 564.108 228.58 564.017C228.38 563.922 228.139 563.875 227.859 563.875C227.484 563.875 227.168 563.955 226.91 564.114C226.652 564.269 226.524 564.477 226.524 564.739C226.524 564.947 226.607 565.123 226.774 565.267C226.94 565.411 227.226 565.527 227.632 565.614L229.211 565.932C230.06 566.106 230.692 566.386 231.109 566.773C231.525 567.159 231.734 567.667 231.734 568.295C231.734 568.867 231.565 569.369 231.228 569.801C230.895 570.233 230.436 570.57 229.853 570.812C229.274 571.051 228.605 571.17 227.847 571.17C226.692 571.17 225.772 570.93 225.086 570.449C224.404 569.964 224.005 569.305 223.887 568.472L226.268 568.347C226.34 568.699 226.514 568.968 226.791 569.153C227.067 569.335 227.421 569.426 227.853 569.426C228.277 569.426 228.618 569.345 228.876 569.182C229.137 569.015 229.27 568.801 229.274 568.54C229.27 568.32 229.177 568.14 228.995 568C228.813 567.856 228.533 567.746 228.154 567.67L226.643 567.369C225.791 567.199 225.156 566.903 224.739 566.483C224.327 566.062 224.12 565.527 224.12 564.875C224.12 564.314 224.272 563.831 224.575 563.426C224.882 563.021 225.311 562.708 225.864 562.489C226.421 562.269 227.073 562.159 227.819 562.159C228.921 562.159 229.789 562.392 230.421 562.858C231.058 563.324 231.429 563.958 231.535 564.761ZM232.938 574.273V562.273H235.324V563.739H235.432C235.538 563.504 235.692 563.265 235.893 563.023C236.097 562.777 236.362 562.572 236.688 562.409C237.018 562.242 237.427 562.159 237.915 562.159C238.552 562.159 239.139 562.326 239.677 562.659C240.214 562.989 240.644 563.487 240.966 564.153C241.288 564.816 241.449 565.648 241.449 566.648C241.449 567.621 241.292 568.443 240.978 569.114C240.667 569.78 240.243 570.286 239.705 570.631C239.171 570.972 238.572 571.142 237.91 571.142C237.44 571.142 237.04 571.064 236.711 570.909C236.385 570.754 236.118 570.559 235.91 570.324C235.701 570.085 235.542 569.845 235.432 569.602H235.358V574.273H232.938ZM235.307 566.636C235.307 567.155 235.379 567.608 235.523 567.994C235.667 568.381 235.875 568.682 236.148 568.898C236.421 569.11 236.752 569.216 237.143 569.216C237.536 569.216 237.87 569.108 238.143 568.892C238.415 568.672 238.622 568.369 238.762 567.983C238.906 567.593 238.978 567.144 238.978 566.636C238.978 566.133 238.908 565.689 238.768 565.307C238.627 564.924 238.421 564.625 238.148 564.409C237.875 564.193 237.54 564.085 237.143 564.085C236.749 564.085 236.415 564.189 236.143 564.398C235.874 564.606 235.667 564.902 235.523 565.284C235.379 565.667 235.307 566.117 235.307 566.636ZM242.743 571V562.273H245.09V563.795H245.18C245.34 563.254 245.607 562.845 245.982 562.568C246.357 562.288 246.788 562.148 247.277 562.148C247.398 562.148 247.529 562.155 247.669 562.17C247.809 562.186 247.932 562.206 248.038 562.233V564.381C247.925 564.347 247.768 564.316 247.567 564.29C247.366 564.263 247.182 564.25 247.016 564.25C246.66 564.25 246.341 564.328 246.061 564.483C245.785 564.634 245.565 564.847 245.402 565.119C245.243 565.392 245.163 565.706 245.163 566.062V571H242.743ZM252.541 571.17C251.643 571.17 250.87 570.989 250.223 570.625C249.579 570.258 249.083 569.739 248.734 569.068C248.386 568.394 248.211 567.597 248.211 566.676C248.211 565.778 248.386 564.991 248.734 564.312C249.083 563.634 249.573 563.106 250.206 562.727C250.842 562.348 251.588 562.159 252.444 562.159C253.02 562.159 253.556 562.252 254.052 562.438C254.552 562.619 254.988 562.894 255.359 563.261C255.734 563.629 256.026 564.091 256.234 564.648C256.442 565.201 256.547 565.848 256.547 566.591V567.256H249.177V565.756H254.268C254.268 565.407 254.192 565.098 254.041 564.83C253.889 564.561 253.679 564.35 253.41 564.199C253.145 564.044 252.836 563.966 252.484 563.966C252.117 563.966 251.791 564.051 251.507 564.222C251.226 564.388 251.007 564.614 250.848 564.898C250.689 565.178 250.607 565.491 250.603 565.835V567.261C250.603 567.693 250.683 568.066 250.842 568.381C251.005 568.695 251.234 568.938 251.529 569.108C251.825 569.278 252.175 569.364 252.581 569.364C252.85 569.364 253.096 569.326 253.319 569.25C253.543 569.174 253.734 569.061 253.893 568.909C254.052 568.758 254.173 568.572 254.257 568.352L256.495 568.5C256.382 569.038 256.149 569.508 255.797 569.909C255.448 570.307 254.997 570.617 254.444 570.841C253.895 571.061 253.261 571.17 252.541 571.17ZM265.067 564.761L262.852 564.898C262.814 564.708 262.732 564.538 262.607 564.386C262.482 564.231 262.317 564.108 262.113 564.017C261.912 563.922 261.672 563.875 261.391 563.875C261.016 563.875 260.7 563.955 260.442 564.114C260.185 564.269 260.056 564.477 260.056 564.739C260.056 564.947 260.139 565.123 260.306 565.267C260.473 565.411 260.759 565.527 261.164 565.614L262.744 565.932C263.592 566.106 264.225 566.386 264.641 566.773C265.058 567.159 265.266 567.667 265.266 568.295C265.266 568.867 265.098 569.369 264.761 569.801C264.427 570.233 263.969 570.57 263.386 570.812C262.806 571.051 262.138 571.17 261.38 571.17C260.225 571.17 259.304 570.93 258.619 570.449C257.937 569.964 257.537 569.305 257.42 568.472L259.8 568.347C259.872 568.699 260.047 568.968 260.323 569.153C260.6 569.335 260.954 569.426 261.386 569.426C261.81 569.426 262.151 569.345 262.408 569.182C262.67 569.015 262.802 568.801 262.806 568.54C262.802 568.32 262.709 568.14 262.528 568C262.346 567.856 262.066 567.746 261.687 567.67L260.175 567.369C259.323 567.199 258.689 566.903 258.272 566.483C257.859 566.062 257.653 565.527 257.653 564.875C257.653 564.314 257.804 563.831 258.107 563.426C258.414 563.021 258.844 562.708 259.397 562.489C259.954 562.269 260.605 562.159 261.352 562.159C262.454 562.159 263.321 562.392 263.954 562.858C264.59 563.324 264.961 563.958 265.067 564.761ZM273.732 564.761L271.516 564.898C271.478 564.708 271.397 564.538 271.272 564.386C271.147 564.231 270.982 564.108 270.777 564.017C270.577 563.922 270.336 563.875 270.056 563.875C269.681 563.875 269.364 563.955 269.107 564.114C268.849 564.269 268.72 564.477 268.72 564.739C268.72 564.947 268.804 565.123 268.97 565.267C269.137 565.411 269.423 565.527 269.828 565.614L271.408 565.932C272.256 566.106 272.889 566.386 273.306 566.773C273.722 567.159 273.931 567.667 273.931 568.295C273.931 568.867 273.762 569.369 273.425 569.801C273.092 570.233 272.633 570.57 272.05 570.812C271.47 571.051 270.802 571.17 270.044 571.17C268.889 571.17 267.969 570.93 267.283 570.449C266.601 569.964 266.202 569.305 266.084 568.472L268.465 568.347C268.537 568.699 268.711 568.968 268.988 569.153C269.264 569.335 269.618 569.426 270.05 569.426C270.474 569.426 270.815 569.345 271.073 569.182C271.334 569.015 271.467 568.801 271.47 568.54C271.467 568.32 271.374 568.14 271.192 568C271.01 567.856 270.73 567.746 270.351 567.67L268.84 567.369C267.988 567.199 267.353 566.903 266.936 566.483C266.523 566.062 266.317 565.527 266.317 564.875C266.317 564.314 266.469 563.831 266.772 563.426C267.078 563.021 267.508 562.708 268.061 562.489C268.618 562.269 269.27 562.159 270.016 562.159C271.118 562.159 271.986 562.392 272.618 562.858C273.255 563.324 273.626 563.958 273.732 564.761ZM279.078 571.17C278.195 571.17 277.432 570.983 276.788 570.608C276.148 570.229 275.654 569.703 275.305 569.028C274.957 568.35 274.783 567.564 274.783 566.67C274.783 565.769 274.957 564.981 275.305 564.307C275.654 563.629 276.148 563.102 276.788 562.727C277.432 562.348 278.195 562.159 279.078 562.159C279.961 562.159 280.722 562.348 281.362 562.727C282.006 563.102 282.502 563.629 282.851 564.307C283.199 564.981 283.373 565.769 283.373 566.67C283.373 567.564 283.199 568.35 282.851 569.028C282.502 569.703 282.006 570.229 281.362 570.608C280.722 570.983 279.961 571.17 279.078 571.17ZM279.089 569.295C279.491 569.295 279.826 569.182 280.095 568.955C280.364 568.723 280.567 568.409 280.703 568.011C280.843 567.614 280.913 567.161 280.913 566.653C280.913 566.146 280.843 565.693 280.703 565.295C280.567 564.898 280.364 564.583 280.095 564.352C279.826 564.121 279.491 564.006 279.089 564.006C278.684 564.006 278.343 564.121 278.067 564.352C277.794 564.583 277.587 564.898 277.447 565.295C277.311 565.693 277.243 566.146 277.243 566.653C277.243 567.161 277.311 567.614 277.447 568.011C277.587 568.409 277.794 568.723 278.067 568.955C278.343 569.182 278.684 569.295 279.089 569.295Z" fill="black"/>
<path d="M162.738 591.364H164.284L165.579 593.068L165.92 593.523L167.852 596.091H166.307L165.034 594.386L164.716 593.955L162.738 591.364ZM168.329 589.182C168.329 590.409 168.108 591.47 167.665 592.364C167.221 593.258 166.613 593.947 165.841 594.432C165.068 594.917 164.185 595.159 163.193 595.159C162.201 595.159 161.318 594.917 160.545 594.432C159.773 593.947 159.165 593.258 158.721 592.364C158.278 591.47 158.057 590.409 158.057 589.182C158.057 587.955 158.278 586.894 158.721 586C159.165 585.106 159.773 584.417 160.545 583.932C161.318 583.447 162.201 583.205 163.193 583.205C164.185 583.205 165.068 583.447 165.841 583.932C166.613 584.417 167.221 585.106 167.665 586C168.108 586.894 168.329 587.955 168.329 589.182ZM166.966 589.182C166.966 588.174 166.797 587.324 166.46 586.631C166.127 585.938 165.674 585.413 165.102 585.057C164.534 584.701 163.898 584.523 163.193 584.523C162.488 584.523 161.85 584.701 161.278 585.057C160.71 585.413 160.257 585.938 159.92 586.631C159.587 587.324 159.42 588.174 159.42 589.182C159.42 590.189 159.587 591.04 159.92 591.733C160.257 592.426 160.71 592.951 161.278 593.307C161.85 593.663 162.488 593.841 163.193 593.841C163.898 593.841 164.534 593.663 165.102 593.307C165.674 592.951 166.127 592.426 166.46 591.733C166.797 591.04 166.966 590.189 166.966 589.182ZM175.697 591.432V586.273H177.038V595H175.697V593.523H175.606C175.401 593.966 175.083 594.343 174.651 594.653C174.22 594.96 173.674 595.114 173.015 595.114C172.47 595.114 171.985 594.994 171.56 594.756C171.136 594.513 170.803 594.15 170.56 593.665C170.318 593.176 170.197 592.561 170.197 591.818V586.273H171.538V591.727C171.538 592.364 171.716 592.871 172.072 593.25C172.432 593.629 172.89 593.818 173.447 593.818C173.78 593.818 174.119 593.733 174.464 593.562C174.812 593.392 175.104 593.131 175.339 592.778C175.578 592.426 175.697 591.977 175.697 591.432ZM181.742 595.205C181.189 595.205 180.687 595.1 180.236 594.892C179.785 594.68 179.427 594.375 179.162 593.977C178.897 593.576 178.765 593.091 178.765 592.523C178.765 592.023 178.863 591.617 179.06 591.307C179.257 590.992 179.52 590.746 179.85 590.568C180.179 590.39 180.543 590.258 180.941 590.17C181.342 590.08 181.746 590.008 182.151 589.955C182.681 589.886 183.111 589.835 183.441 589.801C183.774 589.763 184.017 589.701 184.168 589.614C184.323 589.527 184.401 589.375 184.401 589.159V589.114C184.401 588.553 184.248 588.117 183.941 587.807C183.638 587.496 183.177 587.341 182.56 587.341C181.92 587.341 181.418 587.481 181.054 587.761C180.691 588.042 180.435 588.341 180.287 588.659L179.015 588.205C179.242 587.674 179.545 587.261 179.924 586.966C180.306 586.667 180.723 586.458 181.174 586.341C181.628 586.22 182.075 586.159 182.515 586.159C182.795 586.159 183.117 586.193 183.481 586.261C183.848 586.326 184.202 586.46 184.543 586.665C184.888 586.869 185.174 587.178 185.401 587.591C185.628 588.004 185.742 588.557 185.742 589.25V595H184.401V593.818H184.333C184.242 594.008 184.09 594.21 183.878 594.426C183.666 594.642 183.384 594.826 183.032 594.977C182.679 595.129 182.249 595.205 181.742 595.205ZM181.946 594C182.477 594 182.924 593.896 183.287 593.688C183.655 593.479 183.931 593.21 184.117 592.881C184.306 592.551 184.401 592.205 184.401 591.841V590.614C184.344 590.682 184.219 590.744 184.026 590.801C183.837 590.854 183.617 590.902 183.367 590.943C183.121 590.981 182.88 591.015 182.645 591.045C182.414 591.072 182.227 591.095 182.083 591.114C181.734 591.159 181.409 591.233 181.106 591.335C180.806 591.434 180.564 591.583 180.378 591.784C180.196 591.981 180.106 592.25 180.106 592.591C180.106 593.057 180.278 593.409 180.623 593.648C180.971 593.883 181.412 594 181.946 594ZM189.21 589.75V595H187.869V586.273H189.165V587.636H189.278C189.483 587.193 189.794 586.837 190.21 586.568C190.627 586.295 191.165 586.159 191.824 586.159C192.415 586.159 192.932 586.28 193.375 586.523C193.818 586.761 194.163 587.125 194.409 587.614C194.655 588.098 194.778 588.712 194.778 589.455V595H193.438V589.545C193.438 588.86 193.259 588.326 192.903 587.943C192.547 587.557 192.059 587.364 191.438 587.364C191.009 587.364 190.627 587.456 190.29 587.642C189.956 587.828 189.693 588.098 189.5 588.455C189.307 588.811 189.21 589.242 189.21 589.75ZM200.704 586.273V587.409H196.181V586.273H200.704ZM197.5 584.182H198.841V592.5C198.841 592.879 198.895 593.163 199.005 593.352C199.119 593.538 199.263 593.663 199.437 593.727C199.615 593.788 199.803 593.818 200 593.818C200.147 593.818 200.269 593.811 200.363 593.795C200.458 593.777 200.534 593.761 200.591 593.75L200.863 594.955C200.772 594.989 200.645 595.023 200.483 595.057C200.32 595.095 200.113 595.114 199.863 595.114C199.484 595.114 199.113 595.032 198.75 594.869C198.39 594.706 198.091 594.458 197.852 594.125C197.617 593.792 197.5 593.371 197.5 592.864V584.182ZM202.401 595V586.273H203.742V595H202.401ZM203.083 584.818C202.822 584.818 202.596 584.729 202.407 584.551C202.221 584.373 202.128 584.159 202.128 583.909C202.128 583.659 202.221 583.445 202.407 583.267C202.596 583.089 202.822 583 203.083 583C203.344 583 203.568 583.089 203.753 583.267C203.943 583.445 204.038 583.659 204.038 583.909C204.038 584.159 203.943 584.373 203.753 584.551C203.568 584.729 203.344 584.818 203.083 584.818ZM209.674 586.273V587.409H205.151V586.273H209.674ZM206.469 584.182H207.81V592.5C207.81 592.879 207.865 593.163 207.975 593.352C208.088 593.538 208.232 593.663 208.406 593.727C208.585 593.788 208.772 593.818 208.969 593.818C209.117 593.818 209.238 593.811 209.333 593.795C209.427 593.777 209.503 593.761 209.56 593.75L209.833 594.955C209.742 594.989 209.615 595.023 209.452 595.057C209.289 595.095 209.083 595.114 208.833 595.114C208.454 595.114 208.083 595.032 207.719 594.869C207.359 594.706 207.06 594.458 206.821 594.125C206.586 593.792 206.469 593.371 206.469 592.864V584.182ZM214.936 595.182C214.095 595.182 213.37 594.996 212.76 594.625C212.154 594.25 211.686 593.727 211.356 593.057C211.031 592.383 210.868 591.598 210.868 590.705C210.868 589.811 211.031 589.023 211.356 588.341C211.686 587.655 212.144 587.121 212.731 586.739C213.322 586.352 214.012 586.159 214.8 586.159C215.254 586.159 215.703 586.235 216.146 586.386C216.589 586.538 216.993 586.784 217.356 587.125C217.72 587.462 218.01 587.909 218.226 588.466C218.442 589.023 218.55 589.708 218.55 590.523V591.091H211.822V589.932H217.186C217.186 589.439 217.087 589 216.89 588.614C216.697 588.227 216.421 587.922 216.061 587.699C215.705 587.475 215.284 587.364 214.8 587.364C214.265 587.364 213.803 587.496 213.413 587.761C213.027 588.023 212.729 588.364 212.521 588.784C212.313 589.205 212.209 589.655 212.209 590.136V590.909C212.209 591.568 212.322 592.127 212.55 592.585C212.781 593.04 213.101 593.386 213.51 593.625C213.919 593.86 214.394 593.977 214.936 593.977C215.288 593.977 215.606 593.928 215.89 593.83C216.178 593.727 216.426 593.576 216.635 593.375C216.843 593.17 217.004 592.917 217.118 592.614L218.413 592.977C218.277 593.417 218.048 593.803 217.726 594.136C217.404 594.466 217.006 594.723 216.533 594.909C216.059 595.091 215.527 595.182 214.936 595.182ZM214.118 585.091L215.504 582.455H217.072L215.3 585.091H214.118ZM225.449 586.273L227.54 589.841L229.631 586.273H231.177L228.358 590.636L231.177 595H229.631L227.54 591.614L225.449 595H223.904L226.677 590.636L223.904 586.273H225.449ZM236.838 583.364V595H235.429V584.841H235.361L232.52 586.727V585.295L235.429 583.364H236.838Z" fill="black"/>
<path d="M388.424 583.159C387.674 583.159 387.005 583.03 386.418 582.773C385.835 582.515 385.371 582.157 385.026 581.699C384.685 581.237 384.5 580.701 384.469 580.091H385.901C385.931 580.466 386.06 580.79 386.287 581.062C386.515 581.331 386.812 581.54 387.18 581.688C387.547 581.835 387.954 581.909 388.401 581.909C388.901 581.909 389.344 581.822 389.731 581.648C390.117 581.473 390.42 581.231 390.64 580.92C390.859 580.61 390.969 580.25 390.969 579.841C390.969 579.413 390.863 579.036 390.651 578.71C390.439 578.381 390.128 578.123 389.719 577.938C389.31 577.752 388.81 577.659 388.219 577.659H387.287V576.409H388.219C388.681 576.409 389.087 576.326 389.435 576.159C389.787 575.992 390.062 575.758 390.259 575.455C390.46 575.152 390.56 574.795 390.56 574.386C390.56 573.992 390.473 573.65 390.299 573.358C390.125 573.066 389.878 572.839 389.56 572.676C389.246 572.513 388.875 572.432 388.447 572.432C388.045 572.432 387.666 572.506 387.31 572.653C386.958 572.797 386.67 573.008 386.447 573.284C386.223 573.557 386.102 573.886 386.083 574.273H384.719C384.742 573.663 384.926 573.129 385.27 572.67C385.615 572.208 386.066 571.848 386.623 571.591C387.183 571.333 387.799 571.205 388.469 571.205C389.189 571.205 389.806 571.35 390.322 571.642C390.837 571.93 391.233 572.311 391.509 572.784C391.786 573.258 391.924 573.769 391.924 574.318C391.924 574.973 391.752 575.532 391.407 575.994C391.066 576.456 390.602 576.777 390.015 576.955V577.045C390.75 577.167 391.323 577.479 391.736 577.983C392.149 578.483 392.356 579.102 392.356 579.841C392.356 580.473 392.183 581.042 391.839 581.545C391.498 582.045 391.032 582.439 390.441 582.727C389.85 583.015 389.178 583.159 388.424 583.159ZM396.023 581.409L395.932 582.023C395.868 582.455 395.769 582.917 395.637 583.409C395.508 583.902 395.373 584.366 395.233 584.801C395.093 585.237 394.977 585.583 394.887 585.841H393.864C393.913 585.598 393.977 585.278 394.057 584.881C394.137 584.483 394.216 584.038 394.296 583.545C394.379 583.057 394.447 582.557 394.5 582.045L394.568 581.409H396.023ZM401.76 571.205C402.237 571.208 402.714 571.299 403.192 571.477C403.669 571.655 404.104 571.951 404.498 572.364C404.892 572.773 405.209 573.331 405.447 574.04C405.686 574.748 405.805 575.636 405.805 576.705C405.805 577.739 405.707 578.657 405.51 579.46C405.317 580.259 405.036 580.934 404.669 581.483C404.305 582.032 403.862 582.449 403.339 582.733C402.82 583.017 402.233 583.159 401.578 583.159C400.926 583.159 400.345 583.03 399.834 582.773C399.326 582.511 398.909 582.15 398.584 581.688C398.262 581.222 398.055 580.682 397.964 580.068H399.351C399.476 580.602 399.724 581.044 400.095 581.392C400.47 581.737 400.964 581.909 401.578 581.909C402.476 581.909 403.184 581.517 403.703 580.733C404.226 579.949 404.487 578.841 404.487 577.409H404.396C404.184 577.727 403.932 578.002 403.64 578.233C403.349 578.464 403.025 578.642 402.669 578.767C402.313 578.892 401.934 578.955 401.532 578.955C400.866 578.955 400.254 578.79 399.697 578.46C399.144 578.127 398.701 577.67 398.368 577.091C398.038 576.508 397.873 575.841 397.873 575.091C397.873 574.379 398.032 573.727 398.351 573.136C398.673 572.542 399.123 572.068 399.703 571.716C400.286 571.364 400.972 571.193 401.76 571.205ZM401.76 572.455C401.282 572.455 400.853 572.574 400.47 572.812C400.091 573.047 399.79 573.366 399.567 573.767C399.347 574.165 399.237 574.606 399.237 575.091C399.237 575.576 399.343 576.017 399.555 576.415C399.771 576.809 400.065 577.123 400.436 577.358C400.811 577.589 401.237 577.705 401.714 577.705C402.074 577.705 402.409 577.634 402.72 577.494C403.031 577.35 403.301 577.155 403.532 576.909C403.767 576.659 403.951 576.377 404.084 576.062C404.216 575.744 404.282 575.413 404.282 575.068C404.282 574.614 404.173 574.187 403.953 573.79C403.737 573.392 403.438 573.07 403.055 572.824C402.676 572.578 402.245 572.455 401.76 572.455ZM411.424 571.205C411.901 571.208 412.379 571.299 412.856 571.477C413.333 571.655 413.769 571.951 414.163 572.364C414.557 572.773 414.873 573.331 415.112 574.04C415.35 574.748 415.47 575.636 415.47 576.705C415.47 577.739 415.371 578.657 415.174 579.46C414.981 580.259 414.701 580.934 414.333 581.483C413.97 582.032 413.526 582.449 413.004 582.733C412.485 583.017 411.898 583.159 411.242 583.159C410.591 583.159 410.009 583.03 409.498 582.773C408.99 582.511 408.574 582.15 408.248 581.688C407.926 581.222 407.72 580.682 407.629 580.068H409.015C409.14 580.602 409.388 581.044 409.759 581.392C410.134 581.737 410.629 581.909 411.242 581.909C412.14 581.909 412.848 581.517 413.367 580.733C413.89 579.949 414.151 578.841 414.151 577.409H414.06C413.848 577.727 413.596 578.002 413.305 578.233C413.013 578.464 412.689 578.642 412.333 578.767C411.977 578.892 411.598 578.955 411.197 578.955C410.53 578.955 409.918 578.79 409.362 578.46C408.809 578.127 408.365 577.67 408.032 577.091C407.702 576.508 407.538 575.841 407.538 575.091C407.538 574.379 407.697 573.727 408.015 573.136C408.337 572.542 408.788 572.068 409.367 571.716C409.951 571.364 410.636 571.193 411.424 571.205ZM411.424 572.455C410.947 572.455 410.517 572.574 410.134 572.812C409.756 573.047 409.454 573.366 409.231 573.767C409.011 574.165 408.901 574.606 408.901 575.091C408.901 575.576 409.007 576.017 409.22 576.415C409.435 576.809 409.729 577.123 410.1 577.358C410.475 577.589 410.901 577.705 411.379 577.705C411.738 577.705 412.074 577.634 412.384 577.494C412.695 577.35 412.966 577.155 413.197 576.909C413.432 576.659 413.615 576.377 413.748 576.062C413.881 575.744 413.947 575.413 413.947 575.068C413.947 574.614 413.837 574.187 413.617 573.79C413.401 573.392 413.102 573.07 412.72 572.824C412.341 572.578 411.909 572.455 411.424 572.455ZM428.7 575.477L428.178 576.614H420.768L421.178 575.477H428.7ZM427.723 577.75L427.2 578.886H420.768L421.178 577.75H427.723ZM430.041 572.409L429.496 573.591C429.253 573.371 428.998 573.182 428.729 573.023C428.46 572.864 428.178 572.741 427.882 572.653C427.587 572.566 427.276 572.523 426.95 572.523C426.306 572.523 425.727 572.701 425.212 573.057C424.696 573.413 424.289 573.938 423.99 574.631C423.691 575.324 423.541 576.174 423.541 577.182C423.541 578.189 423.691 579.04 423.99 579.733C424.289 580.426 424.696 580.951 425.212 581.307C425.727 581.663 426.306 581.841 426.95 581.841C427.284 581.841 427.598 581.797 427.893 581.71C428.193 581.623 428.471 581.504 428.729 581.352C428.99 581.201 429.231 581.03 429.45 580.841L430.018 582.023C429.621 582.398 429.155 582.682 428.621 582.875C428.087 583.064 427.53 583.159 426.95 583.159C426.018 583.159 425.193 582.917 424.473 582.432C423.757 581.947 423.195 581.258 422.786 580.364C422.38 579.47 422.178 578.409 422.178 577.182C422.178 575.955 422.38 574.894 422.786 574C423.195 573.106 423.757 572.417 424.473 571.932C425.193 571.447 426.018 571.205 426.95 571.205C427.553 571.205 428.115 571.309 428.638 571.517C429.164 571.725 429.632 572.023 430.041 572.409Z" fill="black"/>
</g>
<path d="M431 611H157.102V613H431V611Z" fill="#EEF1F4" mask="url(#path-11-inside-1_1812_1533)"/>
<rect x="54" y="560" width="35.4088" height="34" rx="17" fill="#EEF1F4"/>
<path d="M80 577H64" stroke="black" stroke-width="2" stroke-linecap="round" stroke-linejoin="round"/>
<rect x="99.8232" y="560" width="35.4088" height="34" rx="17" fill="black"/>
<path d="M117.823 569V585M125.823 577L109.823 577" stroke="white" stroke-width="2" stroke-linecap="round" stroke-linejoin="round"/>
<g clip-path="url(#clip1_1812_1533)">
<mask id="path-20-inside-2_1812_1533" fill="white">
<path d="M157.102 612H431V682H157.102V612Z"/>
</mask>
<path d="M157.102 612H431V682H157.102V612Z" fill="white"/>
<path d="M168.38 633.438H165.892C165.846 633.116 165.754 632.83 165.613 632.58C165.473 632.326 165.293 632.11 165.074 631.932C164.854 631.754 164.6 631.617 164.312 631.523C164.028 631.428 163.719 631.381 163.386 631.381C162.784 631.381 162.259 631.53 161.812 631.83C161.365 632.125 161.019 632.557 160.773 633.125C160.526 633.689 160.403 634.375 160.403 635.182C160.403 636.011 160.526 636.708 160.773 637.273C161.023 637.837 161.371 638.263 161.818 638.551C162.265 638.839 162.782 638.983 163.369 638.983C163.699 638.983 164.004 638.939 164.284 638.852C164.568 638.765 164.82 638.638 165.04 638.472C165.259 638.301 165.441 638.095 165.585 637.852C165.733 637.61 165.835 637.333 165.892 637.023L168.38 637.034C168.316 637.568 168.155 638.083 167.898 638.58C167.644 639.072 167.301 639.513 166.869 639.903C166.441 640.29 165.93 640.597 165.335 640.824C164.744 641.047 164.076 641.159 163.329 641.159C162.291 641.159 161.363 640.924 160.545 640.455C159.731 639.985 159.087 639.305 158.613 638.415C158.144 637.525 157.909 636.447 157.909 635.182C157.909 633.913 158.148 632.833 158.625 631.943C159.102 631.053 159.75 630.375 160.568 629.909C161.386 629.439 162.307 629.205 163.329 629.205C164.004 629.205 164.629 629.299 165.204 629.489C165.784 629.678 166.297 629.955 166.744 630.318C167.191 630.678 167.555 631.119 167.835 631.642C168.119 632.165 168.301 632.763 168.38 633.438ZM172.268 641.165C171.711 641.165 171.215 641.068 170.779 640.875C170.344 640.678 169.999 640.388 169.745 640.006C169.495 639.619 169.37 639.138 169.37 638.562C169.37 638.078 169.459 637.67 169.637 637.341C169.815 637.011 170.058 636.746 170.364 636.545C170.671 636.345 171.02 636.193 171.41 636.091C171.804 635.989 172.217 635.917 172.649 635.875C173.156 635.822 173.565 635.773 173.876 635.727C174.186 635.678 174.412 635.606 174.552 635.511C174.692 635.417 174.762 635.277 174.762 635.091V635.057C174.762 634.697 174.649 634.419 174.421 634.222C174.198 634.025 173.88 633.926 173.467 633.926C173.031 633.926 172.685 634.023 172.427 634.216C172.169 634.405 171.999 634.644 171.916 634.932L169.677 634.75C169.791 634.22 170.014 633.761 170.347 633.375C170.681 632.985 171.111 632.686 171.637 632.477C172.167 632.265 172.781 632.159 173.478 632.159C173.963 632.159 174.427 632.216 174.87 632.33C175.317 632.443 175.713 632.619 176.058 632.858C176.406 633.097 176.681 633.403 176.881 633.778C177.082 634.15 177.183 634.595 177.183 635.114V641H174.887V639.79H174.819C174.679 640.062 174.491 640.303 174.256 640.511C174.022 640.716 173.739 640.877 173.41 640.994C173.08 641.108 172.7 641.165 172.268 641.165ZM172.961 639.494C173.317 639.494 173.631 639.424 173.904 639.284C174.177 639.14 174.391 638.947 174.546 638.705C174.702 638.462 174.779 638.187 174.779 637.881V636.955C174.703 637.004 174.599 637.049 174.467 637.091C174.338 637.129 174.192 637.165 174.029 637.199C173.866 637.229 173.703 637.258 173.541 637.284C173.378 637.307 173.23 637.328 173.097 637.347C172.813 637.388 172.565 637.455 172.353 637.545C172.141 637.636 171.976 637.759 171.859 637.915C171.741 638.066 171.683 638.256 171.683 638.483C171.683 638.812 171.802 639.064 172.041 639.239C172.283 639.409 172.59 639.494 172.961 639.494ZM178.74 644.273V632.273H181.127V633.739H181.235C181.341 633.504 181.494 633.265 181.695 633.023C181.9 632.777 182.165 632.572 182.49 632.409C182.82 632.242 183.229 632.159 183.718 632.159C184.354 632.159 184.941 632.326 185.479 632.659C186.017 632.989 186.447 633.487 186.769 634.153C187.091 634.816 187.252 635.648 187.252 636.648C187.252 637.621 187.095 638.443 186.78 639.114C186.47 639.78 186.045 640.286 185.508 640.631C184.973 640.972 184.375 641.142 183.712 641.142C183.242 641.142 182.843 641.064 182.513 640.909C182.187 640.754 181.92 640.559 181.712 640.324C181.504 640.085 181.345 639.845 181.235 639.602H181.161V644.273H178.74ZM181.11 636.636C181.11 637.155 181.182 637.608 181.326 637.994C181.47 638.381 181.678 638.682 181.951 638.898C182.223 639.11 182.555 639.216 182.945 639.216C183.339 639.216 183.672 639.108 183.945 638.892C184.218 638.672 184.424 638.369 184.564 637.983C184.708 637.593 184.78 637.144 184.78 636.636C184.78 636.133 184.71 635.689 184.57 635.307C184.43 634.924 184.223 634.625 183.951 634.409C183.678 634.193 183.343 634.085 182.945 634.085C182.551 634.085 182.218 634.189 181.945 634.398C181.676 634.606 181.47 634.902 181.326 635.284C181.182 635.667 181.11 636.117 181.11 636.636ZM194.142 637.284V632.273H196.563V641H194.239V639.415H194.148C193.951 639.926 193.623 640.337 193.165 640.648C192.71 640.958 192.155 641.114 191.5 641.114C190.917 641.114 190.403 640.981 189.96 640.716C189.517 640.451 189.17 640.074 188.92 639.585C188.674 639.097 188.549 638.511 188.545 637.83V632.273H190.966V637.398C190.97 637.913 191.108 638.32 191.381 638.619C191.653 638.919 192.019 639.068 192.477 639.068C192.769 639.068 193.042 639.002 193.295 638.869C193.549 638.733 193.754 638.532 193.909 638.267C194.068 638.002 194.146 637.674 194.142 637.284ZM202.122 641.17C201.228 641.17 200.459 640.981 199.815 640.602C199.175 640.22 198.682 639.689 198.338 639.011C197.997 638.333 197.826 637.553 197.826 636.67C197.826 635.777 197.999 634.992 198.343 634.318C198.692 633.64 199.186 633.112 199.826 632.733C200.466 632.35 201.228 632.159 202.11 632.159C202.872 632.159 203.538 632.297 204.11 632.574C204.682 632.85 205.135 633.239 205.468 633.739C205.802 634.239 205.985 634.826 206.019 635.5H203.735C203.671 635.064 203.501 634.714 203.224 634.449C202.951 634.18 202.593 634.045 202.15 634.045C201.775 634.045 201.448 634.148 201.167 634.352C200.891 634.553 200.675 634.847 200.519 635.233C200.364 635.619 200.287 636.087 200.287 636.636C200.287 637.193 200.362 637.667 200.514 638.057C200.669 638.447 200.887 638.744 201.167 638.949C201.448 639.153 201.775 639.256 202.15 639.256C202.427 639.256 202.675 639.199 202.894 639.085C203.118 638.972 203.302 638.807 203.446 638.591C203.593 638.371 203.69 638.108 203.735 637.801H206.019C205.982 638.468 205.8 639.055 205.474 639.562C205.152 640.066 204.707 640.46 204.139 640.744C203.571 641.028 202.898 641.17 202.122 641.17ZM211.192 641.17C210.298 641.17 209.53 640.981 208.886 640.602C208.245 640.22 207.753 639.689 207.408 639.011C207.067 638.333 206.897 637.553 206.897 636.67C206.897 635.777 207.069 634.992 207.414 634.318C207.762 633.64 208.257 633.112 208.897 632.733C209.537 632.35 210.298 632.159 211.181 632.159C211.942 632.159 212.609 632.297 213.181 632.574C213.753 632.85 214.206 633.239 214.539 633.739C214.872 634.239 215.056 634.826 215.09 635.5H212.806C212.742 635.064 212.571 634.714 212.295 634.449C212.022 634.18 211.664 634.045 211.221 634.045C210.846 634.045 210.518 634.148 210.238 634.352C209.961 634.553 209.745 634.847 209.59 635.233C209.435 635.619 209.357 636.087 209.357 636.636C209.357 637.193 209.433 637.667 209.584 638.057C209.74 638.447 209.958 638.744 210.238 638.949C210.518 639.153 210.846 639.256 211.221 639.256C211.497 639.256 211.745 639.199 211.965 639.085C212.189 638.972 212.372 638.807 212.516 638.591C212.664 638.371 212.761 638.108 212.806 637.801H215.09C215.052 638.468 214.87 639.055 214.545 639.562C214.223 640.066 213.778 640.46 213.209 640.744C212.641 641.028 211.969 641.17 211.192 641.17ZM216.32 641V632.273H218.74V641H216.32ZM217.536 631.148C217.176 631.148 216.867 631.028 216.61 630.79C216.356 630.547 216.229 630.258 216.229 629.92C216.229 629.587 216.356 629.301 216.61 629.062C216.867 628.82 217.176 628.699 217.536 628.699C217.896 628.699 218.202 628.82 218.456 629.062C218.714 629.301 218.843 629.587 218.843 629.92C218.843 630.258 218.714 630.547 218.456 630.79C218.202 631.028 217.896 631.148 217.536 631.148ZM222.78 635.955V641H220.359V632.273H222.666V633.812H222.768C222.961 633.305 223.285 632.903 223.74 632.608C224.194 632.309 224.746 632.159 225.393 632.159C225.999 632.159 226.528 632.292 226.979 632.557C227.429 632.822 227.78 633.201 228.03 633.693C228.28 634.182 228.405 634.765 228.405 635.443V641H225.984V635.875C225.988 635.341 225.852 634.924 225.575 634.625C225.299 634.322 224.918 634.17 224.433 634.17C224.107 634.17 223.819 634.241 223.569 634.381C223.323 634.521 223.13 634.725 222.99 634.994C222.854 635.259 222.783 635.58 222.78 635.955ZM233.936 641.17C233.053 641.17 232.29 640.983 231.646 640.608C231.006 640.229 230.511 639.703 230.163 639.028C229.814 638.35 229.64 637.564 229.64 636.67C229.64 635.769 229.814 634.981 230.163 634.307C230.511 633.629 231.006 633.102 231.646 632.727C232.29 632.348 233.053 632.159 233.936 632.159C234.818 632.159 235.579 632.348 236.22 632.727C236.864 633.102 237.36 633.629 237.708 634.307C238.057 634.981 238.231 635.769 238.231 636.67C238.231 637.564 238.057 638.35 237.708 639.028C237.36 639.703 236.864 640.229 236.22 640.608C235.579 640.983 234.818 641.17 233.936 641.17ZM233.947 639.295C234.348 639.295 234.684 639.182 234.953 638.955C235.222 638.723 235.424 638.409 235.561 638.011C235.701 637.614 235.771 637.161 235.771 636.653C235.771 636.146 235.701 635.693 235.561 635.295C235.424 634.898 235.222 634.583 234.953 634.352C234.684 634.121 234.348 634.006 233.947 634.006C233.542 634.006 233.201 634.121 232.924 634.352C232.651 634.583 232.445 634.898 232.305 635.295C232.168 635.693 232.1 636.146 232.1 636.653C232.1 637.161 232.168 637.614 232.305 638.011C232.445 638.409 232.651 638.723 232.924 638.955C233.201 639.182 233.542 639.295 233.947 639.295Z" fill="black"/>
<path d="M162.738 661.364H164.284L165.579 663.068L165.92 663.523L167.852 666.091H166.307L165.034 664.386L164.716 663.955L162.738 661.364ZM168.329 659.182C168.329 660.409 168.108 661.47 167.665 662.364C167.221 663.258 166.613 663.947 165.841 664.432C165.068 664.917 164.185 665.159 163.193 665.159C162.201 665.159 161.318 664.917 160.545 664.432C159.773 663.947 159.165 663.258 158.721 662.364C158.278 661.47 158.057 660.409 158.057 659.182C158.057 657.955 158.278 656.894 158.721 656C159.165 655.106 159.773 654.417 160.545 653.932C161.318 653.447 162.201 653.205 163.193 653.205C164.185 653.205 165.068 653.447 165.841 653.932C166.613 654.417 167.221 655.106 167.665 656C168.108 656.894 168.329 657.955 168.329 659.182ZM166.966 659.182C166.966 658.174 166.797 657.324 166.46 656.631C166.127 655.938 165.674 655.413 165.102 655.057C164.534 654.701 163.898 654.523 163.193 654.523C162.488 654.523 161.85 654.701 161.278 655.057C160.71 655.413 160.257 655.938 159.92 656.631C159.587 657.324 159.42 658.174 159.42 659.182C159.42 660.189 159.587 661.04 159.92 661.733C160.257 662.426 160.71 662.951 161.278 663.307C161.85 663.663 162.488 663.841 163.193 663.841C163.898 663.841 164.534 663.663 165.102 663.307C165.674 662.951 166.127 662.426 166.46 661.733C166.797 661.04 166.966 660.189 166.966 659.182ZM175.697 661.432V656.273H177.038V665H175.697V663.523H175.606C175.401 663.966 175.083 664.343 174.651 664.653C174.22 664.96 173.674 665.114 173.015 665.114C172.47 665.114 171.985 664.994 171.56 664.756C171.136 664.513 170.803 664.15 170.56 663.665C170.318 663.176 170.197 662.561 170.197 661.818V656.273H171.538V661.727C171.538 662.364 171.716 662.871 172.072 663.25C172.432 663.629 172.89 663.818 173.447 663.818C173.78 663.818 174.119 663.733 174.464 663.562C174.812 663.392 175.104 663.131 175.339 662.778C175.578 662.426 175.697 661.977 175.697 661.432ZM181.742 665.205C181.189 665.205 180.687 665.1 180.236 664.892C179.785 664.68 179.427 664.375 179.162 663.977C178.897 663.576 178.765 663.091 178.765 662.523C178.765 662.023 178.863 661.617 179.06 661.307C179.257 660.992 179.52 660.746 179.85 660.568C180.179 660.39 180.543 660.258 180.941 660.17C181.342 660.08 181.746 660.008 182.151 659.955C182.681 659.886 183.111 659.835 183.441 659.801C183.774 659.763 184.017 659.701 184.168 659.614C184.323 659.527 184.401 659.375 184.401 659.159V659.114C184.401 658.553 184.248 658.117 183.941 657.807C183.638 657.496 183.177 657.341 182.56 657.341C181.92 657.341 181.418 657.481 181.054 657.761C180.691 658.042 180.435 658.341 180.287 658.659L179.015 658.205C179.242 657.674 179.545 657.261 179.924 656.966C180.306 656.667 180.723 656.458 181.174 656.341C181.628 656.22 182.075 656.159 182.515 656.159C182.795 656.159 183.117 656.193 183.481 656.261C183.848 656.326 184.202 656.46 184.543 656.665C184.888 656.869 185.174 657.178 185.401 657.591C185.628 658.004 185.742 658.557 185.742 659.25V665H184.401V663.818H184.333C184.242 664.008 184.09 664.21 183.878 664.426C183.666 664.642 183.384 664.826 183.032 664.977C182.679 665.129 182.249 665.205 181.742 665.205ZM181.946 664C182.477 664 182.924 663.896 183.287 663.688C183.655 663.479 183.931 663.21 184.117 662.881C184.306 662.551 184.401 662.205 184.401 661.841V660.614C184.344 660.682 184.219 660.744 184.026 660.801C183.837 660.854 183.617 660.902 183.367 660.943C183.121 660.981 182.88 661.015 182.645 661.045C182.414 661.072 182.227 661.095 182.083 661.114C181.734 661.159 181.409 661.233 181.106 661.335C180.806 661.434 180.564 661.583 180.378 661.784C180.196 661.981 180.106 662.25 180.106 662.591C180.106 663.057 180.278 663.409 180.623 663.648C180.971 663.883 181.412 664 181.946 664ZM189.21 659.75V665H187.869V656.273H189.165V657.636H189.278C189.483 657.193 189.794 656.837 190.21 656.568C190.627 656.295 191.165 656.159 191.824 656.159C192.415 656.159 192.932 656.28 193.375 656.523C193.818 656.761 194.163 657.125 194.409 657.614C194.655 658.098 194.778 658.712 194.778 659.455V665H193.438V659.545C193.438 658.86 193.259 658.326 192.903 657.943C192.547 657.557 192.059 657.364 191.438 657.364C191.009 657.364 190.627 657.456 190.29 657.642C189.956 657.828 189.693 658.098 189.5 658.455C189.307 658.811 189.21 659.242 189.21 659.75ZM200.704 656.273V657.409H196.181V656.273H200.704ZM197.5 654.182H198.841V662.5C198.841 662.879 198.895 663.163 199.005 663.352C199.119 663.538 199.263 663.663 199.437 663.727C199.615 663.788 199.803 663.818 200 663.818C200.147 663.818 200.269 663.811 200.363 663.795C200.458 663.777 200.534 663.761 200.591 663.75L200.863 664.955C200.772 664.989 200.645 665.023 200.483 665.057C200.32 665.095 200.113 665.114 199.863 665.114C199.484 665.114 199.113 665.032 198.75 664.869C198.39 664.706 198.091 664.458 197.852 664.125C197.617 663.792 197.5 663.371 197.5 662.864V654.182ZM202.401 665V656.273H203.742V665H202.401ZM203.083 654.818C202.822 654.818 202.596 654.729 202.407 654.551C202.221 654.373 202.128 654.159 202.128 653.909C202.128 653.659 202.221 653.445 202.407 653.267C202.596 653.089 202.822 653 203.083 653C203.344 653 203.568 653.089 203.753 653.267C203.943 653.445 204.038 653.659 204.038 653.909C204.038 654.159 203.943 654.373 203.753 654.551C203.568 654.729 203.344 654.818 203.083 654.818ZM209.674 656.273V657.409H205.151V656.273H209.674ZM206.469 654.182H207.81V662.5C207.81 662.879 207.865 663.163 207.975 663.352C208.088 663.538 208.232 663.663 208.406 663.727C208.585 663.788 208.772 663.818 208.969 663.818C209.117 663.818 209.238 663.811 209.333 663.795C209.427 663.777 209.503 663.761 209.56 663.75L209.833 664.955C209.742 664.989 209.615 665.023 209.452 665.057C209.289 665.095 209.083 665.114 208.833 665.114C208.454 665.114 208.083 665.032 207.719 664.869C207.359 664.706 207.06 664.458 206.821 664.125C206.586 663.792 206.469 663.371 206.469 662.864V654.182ZM214.936 665.182C214.095 665.182 213.37 664.996 212.76 664.625C212.154 664.25 211.686 663.727 211.356 663.057C211.031 662.383 210.868 661.598 210.868 660.705C210.868 659.811 211.031 659.023 211.356 658.341C211.686 657.655 212.144 657.121 212.731 656.739C213.322 656.352 214.012 656.159 214.8 656.159C215.254 656.159 215.703 656.235 216.146 656.386C216.589 656.538 216.993 656.784 217.356 657.125C217.72 657.462 218.01 657.909 218.226 658.466C218.442 659.023 218.55 659.708 218.55 660.523V661.091H211.822V659.932H217.186C217.186 659.439 217.087 659 216.89 658.614C216.697 658.227 216.421 657.922 216.061 657.699C215.705 657.475 215.284 657.364 214.8 657.364C214.265 657.364 213.803 657.496 213.413 657.761C213.027 658.023 212.729 658.364 212.521 658.784C212.313 659.205 212.209 659.655 212.209 660.136V660.909C212.209 661.568 212.322 662.127 212.55 662.585C212.781 663.04 213.101 663.386 213.51 663.625C213.919 663.86 214.394 663.977 214.936 663.977C215.288 663.977 215.606 663.928 215.89 663.83C216.178 663.727 216.426 663.576 216.635 663.375C216.843 663.17 217.004 662.917 217.118 662.614L218.413 662.977C218.277 663.417 218.048 663.803 217.726 664.136C217.404 664.466 217.006 664.723 216.533 664.909C216.059 665.091 215.527 665.182 214.936 665.182ZM214.118 655.091L215.504 652.455H217.072L215.3 655.091H214.118ZM225.449 656.273L227.54 659.841L229.631 656.273H231.177L228.358 660.636L231.177 665H229.631L227.54 661.614L225.449 665H223.904L226.677 660.636L223.904 656.273H225.449ZM236.838 653.364V665H235.429V654.841H235.361L232.52 656.727V655.295L235.429 653.364H236.838Z" fill="black"/>
<path d="M383.938 650.614V649.455L389.052 641.364H389.893V643.159H389.324L385.461 649.273V649.364H392.347V650.614H383.938ZM389.415 653V650.261V649.722V641.364H390.756V653H389.415ZM395.632 651.409L395.541 652.023C395.477 652.455 395.378 652.917 395.246 653.409C395.117 653.902 394.983 654.366 394.842 654.801C394.702 655.237 394.587 655.583 394.496 655.841H393.473C393.522 655.598 393.587 655.278 393.666 654.881C393.746 654.483 393.825 654.038 393.905 653.545C393.988 653.057 394.057 652.557 394.11 652.045L394.178 651.409H395.632ZM397.501 650.614V649.455L402.615 641.364H403.456V643.159H402.888L399.024 649.273V649.364H405.91V650.614H397.501ZM402.978 653V650.261V649.722V641.364H404.319V653H402.978ZM411.424 641.205C411.901 641.208 412.379 641.299 412.856 641.477C413.333 641.655 413.769 641.951 414.163 642.364C414.557 642.773 414.873 643.331 415.112 644.04C415.35 644.748 415.47 645.636 415.47 646.705C415.47 647.739 415.371 648.657 415.174 649.46C414.981 650.259 414.701 650.934 414.333 651.483C413.97 652.032 413.526 652.449 413.004 652.733C412.485 653.017 411.898 653.159 411.242 653.159C410.591 653.159 410.009 653.03 409.498 652.773C408.99 652.511 408.574 652.15 408.248 651.688C407.926 651.222 407.72 650.682 407.629 650.068H409.015C409.14 650.602 409.388 651.044 409.759 651.392C410.134 651.737 410.629 651.909 411.242 651.909C412.14 651.909 412.848 651.517 413.367 650.733C413.89 649.949 414.151 648.841 414.151 647.409H414.06C413.848 647.727 413.596 648.002 413.305 648.233C413.013 648.464 412.689 648.642 412.333 648.767C411.977 648.892 411.598 648.955 411.197 648.955C410.53 648.955 409.918 648.79 409.362 648.46C408.809 648.127 408.365 647.67 408.032 647.091C407.702 646.508 407.538 645.841 407.538 645.091C407.538 644.379 407.697 643.727 408.015 643.136C408.337 642.542 408.788 642.068 409.367 641.716C409.951 641.364 410.636 641.193 411.424 641.205ZM411.424 642.455C410.947 642.455 410.517 642.574 410.134 642.812C409.756 643.047 409.454 643.366 409.231 643.767C409.011 644.165 408.901 644.606 408.901 645.091C408.901 645.576 409.007 646.017 409.22 646.415C409.435 646.809 409.729 647.123 410.1 647.358C410.475 647.589 410.901 647.705 411.379 647.705C411.738 647.705 412.074 647.634 412.384 647.494C412.695 647.35 412.966 647.155 413.197 646.909C413.432 646.659 413.615 646.377 413.748 646.062C413.881 645.744 413.947 645.413 413.947 645.068C413.947 644.614 413.837 644.187 413.617 643.79C413.401 643.392 413.102 643.07 412.72 642.824C412.341 642.578 411.909 642.455 411.424 642.455ZM428.7 645.477L428.178 646.614H420.768L421.178 645.477H428.7ZM427.723 647.75L427.2 648.886H420.768L421.178 647.75H427.723ZM430.041 642.409L429.496 643.591C429.253 643.371 428.998 643.182 428.729 643.023C428.46 642.864 428.178 642.741 427.882 642.653C427.587 642.566 427.276 642.523 426.95 642.523C426.306 642.523 425.727 642.701 425.212 643.057C424.696 643.413 424.289 643.938 423.99 644.631C423.691 645.324 423.541 646.174 423.541 647.182C423.541 648.189 423.691 649.04 423.99 649.733C424.289 650.426 424.696 650.951 425.212 651.307C425.727 651.663 426.306 651.841 426.95 651.841C427.284 651.841 427.598 651.797 427.893 651.71C428.193 651.623 428.471 651.504 428.729 651.352C428.99 651.201 429.231 651.03 429.45 650.841L430.018 652.023C429.621 652.398 429.155 652.682 428.621 652.875C428.087 653.064 427.53 653.159 426.95 653.159C426.018 653.159 425.193 652.917 424.473 652.432C423.757 651.947 423.195 651.258 422.786 650.364C422.38 649.47 422.178 648.409 422.178 647.182C422.178 645.955 422.38 644.894 422.786 644C423.195 643.106 423.757 642.417 424.473 641.932C425.193 641.447 426.018 641.205 426.95 641.205C427.553 641.205 428.115 641.309 428.638 641.517C429.164 641.725 429.632 642.023 430.041 642.409Z" fill="black"/>
</g>
<path d="M431 681H157.102V683H431V681Z" fill="#EEF1F4" mask="url(#path-20-inside-2_1812_1533)"/>
<rect x="54" y="630" width="35.4088" height="34" rx="17" fill="#EEF1F4"/>
<path d="M80 647H64" stroke="black" stroke-width="2" stroke-linecap="round" stroke-linejoin="round"/>
<rect x="99.8232" y="630" width="35.4088" height="34" rx="17" fill="black"/>
<path d="M117.823 639V655M125.823 647L109.823 647" stroke="white" stroke-width="2" stroke-linecap="round" stroke-linejoin="round"/>
<rect x="257" y="736" width="162" height="50" rx="24" fill="black"/>
<path d="M300.205 755.364L303.233 764.523H303.352L306.375 755.364H308.693L304.591 767H301.989L297.892 755.364H300.205ZM311.42 767.176C310.867 767.176 310.369 767.078 309.926 766.881C309.486 766.68 309.138 766.384 308.88 765.994C308.626 765.604 308.5 765.123 308.5 764.551C308.5 764.059 308.591 763.652 308.772 763.33C308.954 763.008 309.202 762.75 309.517 762.557C309.831 762.364 310.185 762.218 310.579 762.119C310.977 762.017 311.388 761.943 311.812 761.898C312.323 761.845 312.738 761.797 313.056 761.756C313.375 761.71 313.606 761.642 313.75 761.551C313.897 761.456 313.971 761.311 313.971 761.114V761.08C313.971 760.652 313.844 760.32 313.591 760.085C313.337 759.85 312.971 759.733 312.494 759.733C311.99 759.733 311.591 759.843 311.295 760.062C311.003 760.282 310.806 760.542 310.704 760.841L308.784 760.568C308.935 760.038 309.185 759.595 309.534 759.239C309.882 758.879 310.308 758.61 310.812 758.432C311.316 758.25 311.873 758.159 312.483 758.159C312.903 758.159 313.322 758.208 313.738 758.307C314.155 758.405 314.536 758.568 314.88 758.795C315.225 759.019 315.501 759.324 315.71 759.71C315.922 760.097 316.028 760.58 316.028 761.159V767H314.051V765.801H313.983C313.858 766.044 313.681 766.271 313.454 766.483C313.231 766.691 312.948 766.86 312.608 766.989C312.27 767.114 311.875 767.176 311.42 767.176ZM311.954 765.665C312.367 765.665 312.725 765.583 313.028 765.42C313.331 765.254 313.564 765.034 313.727 764.761C313.894 764.489 313.977 764.191 313.977 763.869V762.841C313.912 762.894 313.803 762.943 313.647 762.989C313.496 763.034 313.325 763.074 313.136 763.108C312.947 763.142 312.759 763.172 312.573 763.199C312.388 763.225 312.227 763.248 312.091 763.267C311.784 763.309 311.509 763.377 311.267 763.472C311.024 763.566 310.833 763.699 310.693 763.869C310.553 764.036 310.483 764.252 310.483 764.517C310.483 764.896 310.621 765.182 310.897 765.375C311.174 765.568 311.526 765.665 311.954 765.665ZM319.833 755.364V767H317.776V755.364H319.833ZM321.628 767V758.273H323.685V767H321.628ZM322.662 757.034C322.336 757.034 322.056 756.926 321.821 756.71C321.586 756.491 321.469 756.227 321.469 755.92C321.469 755.61 321.586 755.347 321.821 755.131C322.056 754.911 322.336 754.801 322.662 754.801C322.992 754.801 323.272 754.911 323.503 755.131C323.738 755.347 323.855 755.61 323.855 755.92C323.855 756.227 323.738 756.491 323.503 756.71C323.272 756.926 322.992 757.034 322.662 757.034ZM328.719 767.153C328.033 767.153 327.419 766.977 326.878 766.625C326.336 766.273 325.908 765.761 325.594 765.091C325.279 764.42 325.122 763.606 325.122 762.648C325.122 761.678 325.281 760.86 325.599 760.193C325.921 759.523 326.355 759.017 326.9 758.676C327.446 758.331 328.054 758.159 328.724 758.159C329.236 758.159 329.656 758.246 329.986 758.42C330.315 758.591 330.577 758.797 330.77 759.04C330.963 759.278 331.113 759.504 331.219 759.716H331.304V755.364H333.366V767H331.344V765.625H331.219C331.113 765.837 330.959 766.062 330.758 766.301C330.558 766.536 330.292 766.737 329.963 766.903C329.633 767.07 329.219 767.153 328.719 767.153ZM329.292 765.466C329.728 765.466 330.099 765.348 330.406 765.114C330.713 764.875 330.946 764.544 331.105 764.119C331.264 763.695 331.344 763.201 331.344 762.636C331.344 762.072 331.264 761.581 331.105 761.165C330.95 760.748 330.719 760.424 330.412 760.193C330.109 759.962 329.736 759.847 329.292 759.847C328.834 759.847 328.452 759.966 328.145 760.205C327.838 760.443 327.607 760.773 327.452 761.193C327.296 761.614 327.219 762.095 327.219 762.636C327.219 763.182 327.296 763.669 327.452 764.097C327.611 764.521 327.844 764.856 328.15 765.102C328.461 765.345 328.842 765.466 329.292 765.466ZM339.102 767.17C338.227 767.17 337.471 766.989 336.835 766.625C336.202 766.258 335.715 765.739 335.374 765.068C335.034 764.394 334.863 763.6 334.863 762.688C334.863 761.79 335.034 761.002 335.374 760.324C335.719 759.642 336.2 759.112 336.818 758.733C337.435 758.35 338.16 758.159 338.994 758.159C339.532 758.159 340.039 758.246 340.516 758.42C340.998 758.591 341.422 758.856 341.789 759.216C342.16 759.576 342.452 760.034 342.664 760.591C342.876 761.144 342.982 761.803 342.982 762.568V763.199H335.829V761.812H341.011C341.007 761.419 340.922 761.068 340.755 760.761C340.588 760.451 340.355 760.206 340.056 760.028C339.761 759.85 339.416 759.761 339.022 759.761C338.602 759.761 338.232 759.864 337.914 760.068C337.596 760.269 337.348 760.534 337.17 760.864C336.996 761.189 336.907 761.547 336.903 761.938V763.148C336.903 763.655 336.996 764.091 337.181 764.455C337.367 764.814 337.626 765.091 337.96 765.284C338.293 765.473 338.683 765.568 339.13 765.568C339.429 765.568 339.7 765.527 339.943 765.443C340.185 765.356 340.395 765.229 340.573 765.062C340.751 764.896 340.886 764.689 340.977 764.443L342.897 764.659C342.776 765.167 342.545 765.61 342.204 765.989C341.867 766.364 341.435 766.655 340.909 766.864C340.382 767.068 339.78 767.17 339.102 767.17ZM344.402 767V758.273H346.397V759.727H346.488C346.647 759.223 346.919 758.835 347.306 758.562C347.696 758.286 348.141 758.148 348.641 758.148C348.755 758.148 348.882 758.153 349.022 758.165C349.166 758.172 349.285 758.186 349.38 758.205V760.097C349.293 760.066 349.154 760.04 348.965 760.017C348.779 759.991 348.599 759.977 348.425 759.977C348.05 759.977 347.713 760.059 347.414 760.222C347.118 760.381 346.885 760.602 346.715 760.886C346.544 761.17 346.459 761.498 346.459 761.869V767H344.402Z" fill="white"/>
<path d="M372.667 757.667L376 761M376 761L372.667 764.333M376 761L361 761" stroke="white" stroke-width="2" stroke-linecap="round" stroke-linejoin="round"/>
<rect x="71" y="736" width="162" height="50" rx="24" fill="#EEF1F4"/>
<path d="M125.142 767H122.892L126.989 755.364H129.591L133.693 767H131.443L128.335 757.75H128.244L125.142 767ZM125.216 762.438H131.352V764.131H125.216V762.438ZM136.872 761.886V767H134.815V758.273H136.781V759.756H136.883C137.084 759.267 137.404 758.879 137.843 758.591C138.287 758.303 138.834 758.159 139.485 758.159C140.088 758.159 140.612 758.288 141.059 758.545C141.51 758.803 141.859 759.176 142.105 759.665C142.355 760.153 142.478 760.746 142.474 761.443V767H140.417V761.761C140.417 761.178 140.266 760.722 139.963 760.392C139.663 760.062 139.249 759.898 138.718 759.898C138.359 759.898 138.038 759.977 137.758 760.136C137.482 760.292 137.264 760.517 137.105 760.812C136.949 761.108 136.872 761.466 136.872 761.886ZM146.302 761.886V767H144.245V758.273H146.211V759.756H146.313C146.514 759.267 146.834 758.879 147.273 758.591C147.717 758.303 148.264 758.159 148.915 758.159C149.518 758.159 150.042 758.288 150.489 758.545C150.94 758.803 151.289 759.176 151.535 759.665C151.785 760.153 151.908 760.746 151.904 761.443V767H149.847V761.761C149.847 761.178 149.696 760.722 149.393 760.392C149.093 760.062 148.679 759.898 148.148 759.898C147.789 759.898 147.468 759.977 147.188 760.136C146.912 760.292 146.694 760.517 146.535 760.812C146.379 761.108 146.302 761.466 146.302 761.886ZM159.237 763.33V758.273H161.294V767H159.3V765.449H159.209C159.012 765.937 158.688 766.337 158.237 766.648C157.79 766.958 157.239 767.114 156.584 767.114C156.012 767.114 155.506 766.987 155.067 766.733C154.631 766.475 154.29 766.102 154.044 765.614C153.798 765.121 153.675 764.527 153.675 763.83V758.273H155.732V763.511C155.732 764.064 155.883 764.504 156.186 764.83C156.489 765.155 156.887 765.318 157.379 765.318C157.683 765.318 157.976 765.244 158.26 765.097C158.544 764.949 158.777 764.729 158.959 764.438C159.145 764.142 159.237 763.773 159.237 763.33ZM165.146 755.364V767H163.089V755.364H165.146ZM170.805 767.17C169.93 767.17 169.174 766.989 168.538 766.625C167.905 766.258 167.418 765.739 167.078 765.068C166.737 764.394 166.566 763.6 166.566 762.688C166.566 761.79 166.737 761.002 167.078 760.324C167.422 759.642 167.903 759.112 168.521 758.733C169.138 758.35 169.864 758.159 170.697 758.159C171.235 758.159 171.742 758.246 172.22 758.42C172.701 758.591 173.125 758.856 173.492 759.216C173.864 759.576 174.155 760.034 174.367 760.591C174.579 761.144 174.686 761.803 174.686 762.568V763.199H167.532V761.812H172.714C172.71 761.419 172.625 761.068 172.458 760.761C172.292 760.451 172.059 760.206 171.759 760.028C171.464 759.85 171.119 759.761 170.725 759.761C170.305 759.761 169.936 759.864 169.617 760.068C169.299 760.269 169.051 760.534 168.873 760.864C168.699 761.189 168.61 761.547 168.606 761.938V763.148C168.606 763.655 168.699 764.091 168.884 764.455C169.07 764.814 169.329 765.091 169.663 765.284C169.996 765.473 170.386 765.568 170.833 765.568C171.132 765.568 171.403 765.527 171.646 765.443C171.888 765.356 172.098 765.229 172.276 765.062C172.454 764.896 172.589 764.689 172.68 764.443L174.6 764.659C174.479 765.167 174.248 765.61 173.907 765.989C173.57 766.364 173.138 766.655 172.612 766.864C172.085 767.068 171.483 767.17 170.805 767.17ZM176.106 767V758.273H178.1V759.727H178.191C178.35 759.223 178.623 758.835 179.009 758.562C179.399 758.286 179.844 758.148 180.344 758.148C180.458 758.148 180.585 758.153 180.725 758.165C180.869 758.172 180.988 758.186 181.083 758.205V760.097C180.996 760.066 180.857 760.04 180.668 760.017C180.482 759.991 180.303 759.977 180.128 759.977C179.753 759.977 179.416 760.059 179.117 760.222C178.821 760.381 178.589 760.602 178.418 760.886C178.248 761.17 178.162 761.498 178.162 761.869V767H176.106Z" fill="black"/>
<defs>
<clipPath id="clip0_1812_1533">
<path d="M157.102 542H431V612H157.102V542Z" fill="white"/>
</clipPath>
<clipPath id="clip1_1812_1533">
<path d="M157.102 612H431V682H157.102V612Z" fill="white"/>
</clipPath>
</defs>
</svg>
