<svg width="601" height="515" viewBox="0 0 601 515" fill="none" xmlns="http://www.w3.org/2000/svg">
<g clip-path="url(#clip0_1816_2066)">
<path d="M565.117 389.333C563.218 392.777 559.679 395.268 554.584 396.813C549.486 398.359 542.874 398.943 534.913 398.6C518.992 397.913 497.791 393.524 472.776 385.868C422.756 370.558 357.594 342.216 289.155 304.465C220.715 266.715 161.982 226.717 122.349 192.575C102.53 175.501 87.5081 159.909 78.4345 146.81C73.8971 140.259 70.8637 134.355 69.4519 129.218C68.0407 124.084 68.2604 119.762 70.1599 116.319C72.0595 112.875 75.5978 110.384 80.6932 108.839C85.7909 107.293 92.403 106.709 100.364 107.052C116.285 107.739 137.486 112.128 162.501 119.784C212.521 135.094 277.683 163.436 346.122 201.187C414.562 238.937 473.295 278.934 512.928 313.077C532.747 330.15 547.769 345.742 556.843 358.842C561.38 365.393 564.414 371.297 565.825 376.434C567.237 381.568 567.017 385.889 565.117 389.333Z" stroke="black"/>
<path d="M544.887 426.007C542.987 429.451 539.449 431.942 534.354 433.487C529.256 435.033 522.644 435.617 514.683 435.273C498.762 434.587 477.56 430.198 452.546 422.542C402.526 407.232 337.364 378.89 268.924 341.139C200.485 303.388 141.752 263.391 102.119 229.249C82.2998 212.175 67.2777 196.583 58.2041 183.483C53.6667 176.933 50.6334 171.029 49.2215 165.892C47.8103 160.758 48.03 156.436 49.9296 152.992C51.8292 149.549 55.3675 147.057 60.4628 145.512C65.5606 143.967 72.1726 143.383 80.1339 143.726C96.0544 144.413 117.256 148.802 142.27 156.458C192.291 171.767 257.452 200.11 325.892 237.86C394.331 275.611 453.064 315.608 492.697 349.75C512.517 366.824 527.539 382.416 536.612 395.516C541.15 402.067 544.183 407.971 545.595 413.107C547.006 418.241 546.786 422.563 544.887 426.007Z" stroke="black"/>
<path d="M524.658 462.681C522.759 466.125 519.22 468.616 514.125 470.161C509.027 471.707 502.415 472.291 494.454 471.948C478.533 471.261 457.332 466.872 432.317 459.216C382.297 443.906 317.135 415.564 248.696 377.813C180.256 340.063 121.523 300.066 81.8908 265.923C62.0713 248.85 47.0491 233.258 37.9755 220.158C33.4381 213.607 30.4047 207.703 28.9929 202.566C27.5817 197.432 27.8014 193.111 29.701 189.667C31.6005 186.223 35.1388 183.732 40.2342 182.187C45.332 180.641 51.944 180.057 59.9053 180.4C75.8258 181.087 97.0275 185.476 122.042 193.132C172.062 208.442 237.224 236.784 305.663 274.535C374.103 312.285 432.836 352.283 472.469 386.425C492.288 403.499 507.31 419.091 516.384 432.19C520.921 438.741 523.955 444.645 525.366 449.782C526.778 454.916 526.558 459.237 524.658 462.681Z" stroke="black"/>
<path d="M132.037 120C140.598 120 147.537 113.06 147.537 104.5C147.537 95.9396 140.598 89 132.037 89C123.477 89 116.537 95.9396 116.537 104.5C116.537 113.06 123.477 120 132.037 120Z" fill="#00FFAE"/>
<path d="M421.537 445C427.06 445 431.537 440.523 431.537 435C431.537 429.477 427.06 425 421.537 425C416.014 425 411.537 429.477 411.537 435C411.537 440.523 416.014 445 421.537 445Z" fill="#00FFAE"/>
<path d="M82.0371 88C95.0158 88 105.537 77.4787 105.537 64.5C105.537 51.5213 95.0158 41 82.0371 41C69.0584 41 58.5371 51.5213 58.5371 64.5C58.5371 77.4787 69.0584 88 82.0371 88Z" fill="black"/>
<path d="M183.5 440C190.404 440 196 434.404 196 427.5C196 420.596 190.404 415 183.5 415C176.596 415 171 420.596 171 427.5C171 434.404 176.596 440 183.5 440Z" fill="black"/>
<path d="M577.272 83.5926C590.377 70.483 590.377 49.2282 577.272 36.1186C564.168 23.009 542.922 23.009 529.817 36.1186C516.713 49.2281 516.713 70.483 529.817 83.5926C542.922 96.7022 564.168 96.7022 577.272 83.5926Z" fill="#00FFAE"/>
<path d="M553.539 94.2732C534.587 94.2732 519.121 78.8399 519.121 59.8419C519.121 40.8832 534.548 25.4106 553.539 25.4106C572.529 25.4106 587.956 40.844 587.956 59.8419C587.956 78.8007 572.529 94.2732 553.539 94.2732ZM553.539 27.1342C535.527 27.1342 520.844 41.7841 520.844 59.8419C520.844 77.8606 535.488 92.5497 553.539 92.5497C571.55 92.5497 586.233 77.8998 586.233 59.8419C586.233 41.8233 571.589 27.1342 553.539 27.1342Z" fill="#00FFAE"/>
<path d="M562.622 63.1713C560.743 63.1713 559.098 64.0723 558.002 65.4824L546.685 61.0561C546.685 60.8994 546.724 60.7819 546.724 60.6252C546.724 60.351 546.685 60.0768 546.646 59.8026L558.237 54.4362C559.294 55.6505 560.86 56.4339 562.622 56.4731C565.833 56.4731 568.495 53.8486 568.495 50.5974C568.495 47.3462 565.872 44.6826 562.622 44.6826C559.411 44.6826 556.749 47.3071 556.749 50.5583C556.749 50.8325 556.788 51.1067 556.827 51.3809L545.237 56.7473C544.18 55.533 542.614 54.7496 540.852 54.7104C537.641 54.7104 534.979 57.3348 534.979 60.586C534.979 63.8372 537.602 66.5009 540.852 66.5009C542.731 66.5009 544.375 65.5999 545.471 64.1898L556.788 68.6161C556.788 68.7728 556.749 68.8903 556.749 69.047C556.749 72.2982 559.372 74.9618 562.622 74.9618C565.833 74.9618 568.495 72.3373 568.495 69.0861C568.456 65.8349 565.833 63.2105 562.622 63.1713Z" fill="black"/>
<path d="M563.067 189.993C578.433 179.322 582.294 158.283 571.69 142.999C561.085 127.715 540.032 123.975 524.665 134.645C509.299 145.315 505.438 166.355 516.042 181.639C526.647 196.923 547.7 200.663 563.067 189.993Z" fill="black"/>
<g clip-path="url(#clip1_1816_2066)">
<path d="M459 77C475.569 77 489 63.5685 489 47C489 30.4315 475.569 17 459 17C442.431 17 429 30.4315 429 47C429 63.5685 442.431 77 459 77Z" fill="black"/>
<path d="M445.443 61.1176H451.612V41.1489H445.443V61.1176Z" fill="white"/>
<path d="M444.883 34.774C444.883 36.7427 446.472 38.3364 448.528 38.3364C450.49 38.3364 452.079 36.7427 452.079 34.774C452.079 32.8052 450.49 31.1177 448.528 31.1177C446.472 31.1177 444.883 32.8052 444.883 34.774Z" fill="white"/>
<path d="M468.62 61.1177H474.882V50.149C474.882 44.8051 473.667 40.5864 467.405 40.5864C464.415 40.5864 462.358 42.274 461.517 43.8677H461.424V41.149H455.536V61.1177H461.704V51.274C461.704 48.649 462.172 46.1177 465.443 46.1177C468.62 46.1177 468.62 49.1177 468.62 51.3677V61.1177Z" fill="white"/>
</g>
<path d="M543.535 299.582C562.512 290.34 570.452 267.553 561.271 248.686C552.09 229.819 529.264 222.016 510.287 231.258C491.311 240.499 483.371 263.286 492.552 282.153C501.733 301.02 524.559 308.823 543.535 299.582Z" fill="#00FFAE"/>
<path d="M526.718 304.347C522.646 304.347 518.495 303.72 514.462 302.349C504.595 299.059 496.607 292.165 491.987 282.842C487.367 273.559 486.662 263.022 489.99 253.151C496.881 232.821 519.043 221.735 539.443 228.512C549.31 231.802 557.298 238.696 561.918 248.019C566.539 257.303 567.243 267.84 563.915 277.711C558.355 294.006 543.045 304.347 526.718 304.347ZM527.109 228.277C511.486 228.277 496.842 238.148 491.556 253.738C488.385 263.178 489.05 273.245 493.475 282.098C497.899 290.99 505.535 297.61 514.971 300.743C534.47 307.206 555.653 296.63 562.232 277.202C565.403 267.761 564.737 257.694 560.313 248.842C555.888 239.95 548.253 233.33 538.817 230.196C534.94 228.865 530.986 228.277 527.109 228.277Z" fill="black"/>
<path d="M546.375 259.261C545.983 268.78 529.891 291.029 526.053 296.239C525.662 296.787 524.84 296.748 524.487 296.16C522.06 292.243 514.033 279.082 509.843 268.427C508.16 264.197 507.102 260.358 507.22 257.655C507.651 246.844 516.774 238.422 527.581 238.853C538.387 239.362 546.806 248.45 546.375 259.261Z" fill="black"/>
<path d="M533.13 264.827C536.632 261.324 536.632 255.644 533.13 252.141C529.628 248.638 523.951 248.638 520.45 252.141C516.948 255.644 516.948 261.324 520.45 264.827C523.951 268.33 529.628 268.33 533.13 264.827Z" fill="#00FFAE"/>
<path d="M268.868 57.8126L160.079 158.442C139.248 177.71 154.973 212.402 183.194 209.436L419.317 184.618C447.538 181.652 455.707 144.449 431.325 129.932L303.991 54.121C292.758 47.4336 278.464 48.9359 268.868 57.8126Z" fill="white" stroke="black"/>
<rect x="147.627" y="152.83" width="300" height="223.234" rx="29.5" transform="rotate(-6 147.627 152.83)" fill="white" stroke="black"/>
<path d="M320.976 247.536L434.621 179.883C461.804 163.702 447.909 121.89 416.448 125.197L177.575 150.303C146.114 153.61 141.216 197.397 171.169 207.573L296.396 250.12C304.573 252.898 313.556 251.954 320.976 247.536Z" fill="#00FFAE" stroke="black"/>
<path d="M530 150.333C530 148.492 531.492 147 533.333 147H538.799C539.516 147 540.153 147.459 540.38 148.14L542.876 155.629C543.139 156.416 542.782 157.276 542.04 157.646L538.278 159.527C540.115 163.602 543.398 166.885 547.473 168.722L549.354 164.96C549.724 164.218 550.584 163.861 551.371 164.124L558.86 166.62C559.541 166.847 560 167.484 560 168.201V173.667C560 175.508 558.508 177 556.667 177H555C541.193 177 530 165.807 530 152V150.333Z" stroke="white" stroke-width="2" stroke-linecap="round" stroke-linejoin="round"/>
</g>
<defs>
<clipPath id="clip0_1816_2066">
<rect width="601" height="515" fill="white"/>
</clipPath>
<clipPath id="clip1_1816_2066">
<rect width="60" height="60" fill="white" transform="translate(429 17)"/>
</clipPath>
</defs>
</svg>
